<svg width="63" height="91" viewBox="0 0 63 91" fill="none" xmlns="http://www.w3.org/2000/svg">
<path d="M1.12318 43.867C1.10871 43.8836 1.09605 43.8993 1.0843 43.9178C1.07435 43.9344 1.06622 43.9482 1.05898 43.9648C1.04994 43.9842 1.04361 44.0036 1.03819 44.023C1.03186 44.0424 1.02643 44.0608 1.02282 44.0802C1.0201 44.0987 1.01739 44.1162 1.01649 44.1347C1.01558 44.1559 1.01649 44.1762 1.01739 44.1974C1.0192 44.2168 1.02101 44.2353 1.02553 44.2546C1.02914 44.2731 1.03367 44.2897 1.04 44.3072C1.04723 44.3285 1.05627 44.3478 1.06531 44.3681C1.07074 44.3792 1.07164 44.3912 1.07797 44.4023C1.08249 44.4088 1.08972 44.4115 1.09424 44.418C1.10057 44.4272 1.10148 44.4374 1.10871 44.4457L7.53638 52.8145C7.5626 52.8486 7.59877 52.868 7.63132 52.892C7.6503 52.9068 7.66477 52.9261 7.68647 52.9372C7.75067 52.9704 7.82029 52.9917 7.89262 52.9917C7.97309 52.9917 8.05537 52.9704 8.1286 52.9234L9.3881 52.138L13.965 58.0944C13.9912 58.1285 14.0273 58.1488 14.0608 58.1728C14.0798 58.1866 14.0933 58.206 14.115 58.2171C14.1792 58.2503 14.2489 58.2716 14.3212 58.2716C14.4017 58.2716 14.4839 58.2503 14.5572 58.2033L15.8167 57.4179L18.7823 61.283C18.8076 61.3162 18.8429 61.3356 18.8754 61.3596C18.8953 61.3752 18.9116 61.3946 18.9333 61.4066C18.9966 61.4399 19.0662 61.4602 19.1386 61.4602C19.2199 61.4602 19.3013 61.4389 19.3754 61.3928L20.6422 60.5991L21.9957 62.3729C22.021 62.407 22.0572 62.4264 22.0897 62.4504C22.1087 62.4652 22.1241 62.4855 22.1458 62.4975C22.2109 62.5307 22.2805 62.5519 22.3528 62.5519C22.4333 62.5519 22.5147 62.5307 22.5879 62.4846L23.8555 61.6983L25.2109 63.4647C25.2371 63.4997 25.2733 63.5191 25.3058 63.5431C25.3248 63.5579 25.3402 63.5773 25.3619 63.5883C25.4252 63.6225 25.4948 63.6428 25.5671 63.6428C25.5825 63.6428 25.5942 63.6317 25.6096 63.6299V81.3578C25.6096 81.3771 25.6187 81.3937 25.6205 81.4122C25.625 81.4454 25.6286 81.4768 25.6395 81.5082C25.6494 81.535 25.6621 81.5599 25.6765 81.5848C25.691 81.6097 25.7055 81.6355 25.7254 81.6577C25.7452 81.6817 25.7697 81.7001 25.7941 81.7195C25.8094 81.7315 25.8194 81.7472 25.8366 81.7574L29.5454 83.9372C29.5463 83.9382 29.5463 83.9372 29.5472 83.9382C29.5536 83.9419 29.5626 83.9409 29.5689 83.9446C29.6295 83.976 29.6973 84 29.7715 84C29.8456 84 29.9125 83.9769 29.974 83.9446C29.9812 83.9409 29.9903 83.9419 29.9957 83.9382C29.9966 83.9372 29.9966 83.9382 29.9975 83.9372L33.7064 81.7574C33.7235 81.7472 33.7335 81.7315 33.7489 81.7195C33.7733 81.7001 33.7977 81.6817 33.8176 81.6577C33.8366 81.6355 33.8519 81.6097 33.8664 81.5848C33.8809 81.5599 33.8935 81.535 33.9035 81.5082C33.9143 81.4768 33.9179 81.4454 33.9225 81.4122C33.9243 81.3937 33.9333 81.3781 33.9333 81.3578V77.7742L36.9839 79.5673H36.9849C36.9921 79.572 37.0002 79.571 37.0065 79.5747C37.068 79.607 37.1349 79.6292 37.2091 79.6292C37.2832 79.6292 37.3501 79.6079 37.4116 79.5747C37.4188 79.571 37.4279 79.571 37.4342 79.5673C37.4342 79.5673 37.4351 79.5673 37.436 79.5673L41.1349 77.3755C41.1521 77.3662 41.1612 77.3505 41.1765 77.3376C41.2018 77.3182 41.2254 77.2998 41.2452 77.2767C41.2642 77.2536 41.2796 77.2287 41.2941 77.2029C41.3085 77.178 41.3212 77.154 41.3311 77.1263C41.342 77.0949 41.3465 77.0645 41.3501 77.0312C41.3519 77.0119 41.361 76.9952 41.361 76.9768V63.1758L46.6829 59.8571C46.6937 59.8506 46.6991 59.8405 46.7082 59.834C46.7136 59.8294 46.7208 59.8312 46.7263 59.8266C46.7344 59.8211 46.7371 59.8119 46.7452 59.8054C46.7516 59.7999 46.7606 59.7971 46.7669 59.7906L48.0825 58.4478C48.0979 58.4331 48.1033 58.4128 48.1169 58.3952C48.1358 58.3703 48.1539 58.3463 48.1675 58.3177C48.1801 58.2909 48.1865 58.2632 48.1928 58.2356C48.2009 58.2069 48.2082 58.1783 48.21 58.1488C48.2118 58.1193 48.2073 58.0916 48.2037 58.0611C48.2 58.0325 48.1964 58.0039 48.1874 57.9753C48.1774 57.9467 48.1621 57.9209 48.1467 57.8941C48.1358 57.8747 48.1313 57.8535 48.1187 57.8359L47.0355 56.4267L48.0753 55.3598C48.0906 55.3432 48.0961 55.3238 48.1087 55.3072C48.1277 55.2823 48.1467 55.2565 48.1603 55.2279C48.1729 55.202 48.1792 55.1734 48.1865 55.1457C48.1937 55.1171 48.2009 55.0894 48.2028 55.0599C48.2046 55.0294 48.2 55.0017 48.1964 54.9713C48.1919 54.9427 48.1892 54.915 48.1801 54.8864C48.1702 54.8568 48.1539 54.8301 48.1377 54.8024C48.1268 54.783 48.1232 54.7636 48.1105 54.7461L46.4984 52.6557C46.493 52.6484 46.4839 52.6447 46.4794 52.6382C46.4722 52.6308 46.4704 52.6207 46.4631 52.6142C46.4541 52.605 46.4424 52.6013 46.4324 52.5948C46.4152 52.5791 46.3999 52.5662 46.3809 52.5542C46.3655 52.5441 46.3519 52.5358 46.3357 52.5293C46.3167 52.5192 46.2986 52.5136 46.2787 52.5072C46.2597 52.5016 46.2425 52.4961 46.2226 52.4924C46.2046 52.4887 46.1874 52.4869 46.1693 52.485C46.1494 52.4841 46.1286 52.485 46.1087 52.4868C46.0897 52.4887 46.0707 52.4905 46.0518 52.4942C46.0337 52.4979 46.0174 52.5035 46.0002 52.509C45.9803 52.5164 45.9613 52.5256 45.9424 52.5348C45.9315 52.5413 45.9188 52.5413 45.908 52.5487L44.6503 53.3331L43.5563 51.8999L44.8465 51.1422C44.8637 51.132 44.8736 51.1164 44.889 51.1044C44.9134 51.085 44.9378 51.0665 44.9577 51.0425C44.9767 51.0194 44.9921 50.9955 45.0065 50.9687C45.021 50.9447 45.0337 50.9198 45.0436 50.893C45.0545 50.8616 45.0581 50.8303 45.0626 50.797C45.0644 50.7777 45.0735 50.762 45.0735 50.7426V48.8267L46.6991 47.8604C46.7163 47.8502 46.7254 47.8345 46.7407 47.8225C46.7651 47.8032 46.7896 47.7847 46.8094 47.7607C46.8284 47.7386 46.8429 47.7136 46.8574 47.6878C46.8718 47.6629 46.8845 47.638 46.8944 47.6103C46.9044 47.5798 46.9089 47.5494 46.9134 47.5171C46.9152 47.4977 46.9243 47.4811 46.9243 47.4617V28.0551L48.5472 27.098C48.5644 27.0879 48.5735 27.0722 48.5888 27.0602C48.6141 27.0408 48.6386 27.0214 48.6593 26.9974C48.6783 26.9753 48.6919 26.9513 48.7064 26.9254C48.7217 26.8996 48.7344 26.8747 48.7443 26.847C48.7543 26.8165 48.7588 26.7861 48.7624 26.7538C48.7651 26.7344 48.7742 26.7178 48.7742 26.6975V9.20587C48.7742 9.19572 48.7697 9.18741 48.7688 9.17818C48.7679 9.1588 48.7651 9.13942 48.7606 9.12004C48.757 9.09882 48.7516 9.07851 48.7443 9.05729C48.7371 9.03698 48.7299 9.01852 48.7208 9.00007C48.7172 8.99176 48.7172 8.98253 48.7127 8.97515C48.7082 8.96777 48.7 8.96315 48.6955 8.95577C48.6838 8.93823 48.6729 8.92254 48.6584 8.90685C48.6449 8.89024 48.6313 8.87548 48.6141 8.86163C48.5988 8.84779 48.5843 8.83579 48.5671 8.82379C48.559 8.81826 48.5545 8.80995 48.5472 8.80534L33.7018 0.0544508C33.6847 0.0442989 33.6657 0.0433761 33.6476 0.0359929C33.6187 0.0230724 33.5897 0.0110748 33.5581 0.00553741C33.5319 3.86781e-08 33.5056 0 33.4794 0C33.4478 0 33.4179 -2.83639e-08 33.3854 0.00646023C33.3583 0.0119976 33.332 0.0230725 33.3058 0.0341473C33.2868 0.0424533 33.266 0.0433761 33.2489 0.053528L18.4152 8.80534C18.4062 8.80995 18.4017 8.81918 18.3944 8.82472C18.3782 8.83579 18.3646 8.84687 18.3492 8.85979C18.332 8.87455 18.3185 8.88932 18.3031 8.90593C18.2895 8.92162 18.2787 8.93731 18.2669 8.95484C18.2624 8.96223 18.2543 8.96684 18.2498 8.97423C18.2452 8.98161 18.2452 8.99176 18.2416 8.99914C18.2317 9.0176 18.2244 9.03606 18.2181 9.05636C18.2109 9.07667 18.2055 9.09697 18.2018 9.11912C18.1982 9.1385 18.1946 9.15788 18.1937 9.17726C18.1928 9.18649 18.1883 9.1948 18.1883 9.20495V26.6975C18.1883 26.7169 18.1973 26.7335 18.1991 26.7519C18.2036 26.7852 18.2073 26.8165 18.2181 26.8479C18.2281 26.8747 18.2407 26.8996 18.2552 26.9245C18.2697 26.9504 18.2841 26.9753 18.304 26.9984C18.3239 27.0223 18.3483 27.0408 18.3727 27.0602C18.3881 27.0722 18.398 27.0879 18.4152 27.098L21.898 29.145V30.8025L20.2742 31.7586C20.266 31.7633 20.2615 31.7716 20.2552 31.7762C20.238 31.7873 20.2235 31.7993 20.2082 31.8131C20.191 31.8279 20.1774 31.8426 20.163 31.8592C20.1494 31.8749 20.1376 31.8906 20.1268 31.9072C20.1214 31.9146 20.1132 31.9192 20.1087 31.9275C20.1042 31.9358 20.1042 31.9451 20.0997 31.9534C20.0906 31.9718 20.0834 31.9903 20.0771 32.0097C20.0698 32.03 20.0653 32.0494 20.0608 32.0715C20.0572 32.0918 20.0545 32.1103 20.0527 32.1306C20.0527 32.1398 20.0472 32.1481 20.0472 32.1583V43.9002L18.9469 44.5832L17.5915 42.8158C17.5852 42.8075 17.5771 42.8048 17.5716 42.7974C17.5644 42.79 17.5626 42.7798 17.5554 42.7734C17.5463 42.7642 17.5346 42.7605 17.5246 42.754C17.5084 42.7392 17.493 42.7254 17.4749 42.7143C17.4586 42.7042 17.4442 42.6959 17.4279 42.6885C17.4089 42.6792 17.3908 42.6728 17.3718 42.6663C17.3528 42.6608 17.3348 42.6553 17.3158 42.6516C17.2977 42.6479 17.2814 42.646 17.2624 42.6442C17.2434 42.6433 17.2235 42.6442 17.2046 42.646C17.1847 42.647 17.1639 42.6488 17.144 42.6534C17.1268 42.6571 17.1114 42.6626 17.0933 42.6682C17.0744 42.6756 17.0554 42.6848 17.0364 42.6931C17.0246 42.6996 17.0129 42.7005 17.002 42.7069L15.7344 43.4942L14.3791 41.7277C14.3727 41.7204 14.3637 41.7167 14.3583 41.7093C14.3528 41.7019 14.3501 41.6936 14.3438 41.6871C14.3348 41.6779 14.3239 41.6742 14.314 41.6668C14.2968 41.6521 14.2814 41.6382 14.2633 41.6272C14.247 41.617 14.2326 41.6078 14.2154 41.6004C14.1964 41.5912 14.1783 41.5847 14.1593 41.5792C14.1404 41.5736 14.1232 41.5672 14.1033 41.5635C14.0852 41.5607 14.068 41.5579 14.049 41.557C14.0291 41.5561 14.0084 41.557 13.9885 41.5579C13.9695 41.5589 13.9514 41.5607 13.9324 41.5653C13.9143 41.569 13.8989 41.5736 13.8809 41.5792C13.8601 41.5865 13.8411 41.5967 13.8212 41.6059C13.8103 41.6115 13.7986 41.6115 13.7877 41.6188L12.521 42.4052L11.1657 40.6295C11.1593 40.6212 11.1503 40.6175 11.1449 40.6101C11.1376 40.6027 11.1358 40.5935 11.1286 40.5861C11.1196 40.5769 11.1078 40.5741 11.0988 40.5658C11.0816 40.552 11.0671 40.5381 11.049 40.5271C11.0328 40.5169 11.0174 40.5077 11.0002 40.4994C10.9812 40.4911 10.964 40.4846 10.9442 40.4781C10.9252 40.4726 10.9089 40.4662 10.889 40.4625C10.87 40.4588 10.8528 40.4569 10.8338 40.456C10.814 40.4551 10.795 40.456 10.776 40.4569C10.7561 40.4578 10.7362 40.4597 10.7163 40.4643C10.6991 40.468 10.6829 40.4726 10.6657 40.4791C10.6458 40.4855 10.6268 40.4948 10.6078 40.5049C10.5961 40.5105 10.5843 40.5105 10.5735 40.5178L9.30582 41.3051L7.95048 39.5377C7.94415 39.5303 7.93602 39.5266 7.93059 39.5193C7.92336 39.5119 7.92155 39.5026 7.91432 39.4953C7.90528 39.486 7.89352 39.4833 7.88448 39.475C7.8673 39.4602 7.85193 39.4464 7.83294 39.4353C7.81757 39.4251 7.80311 39.4168 7.78683 39.4094C7.76784 39.4002 7.75066 39.3937 7.73077 39.3873C7.71088 39.3808 7.6928 39.3753 7.67291 39.3716C7.65482 39.3688 7.63855 39.367 7.62047 39.3661C7.60148 39.3651 7.58249 39.3661 7.5626 39.367C7.54271 39.3679 7.52191 39.3698 7.50202 39.3744C7.48484 39.3781 7.46947 39.3827 7.45229 39.3891C7.4324 39.3956 7.41341 39.4048 7.39443 39.415C7.38267 39.4205 7.37092 39.4214 7.36007 39.4279L6.09334 40.2142L4.73801 38.4386C4.73168 38.4312 4.72264 38.4275 4.71721 38.4201C4.70998 38.4118 4.70727 38.4016 4.70003 38.3943C4.69099 38.385 4.68014 38.3823 4.67019 38.3749C4.65302 38.3601 4.63764 38.3463 4.61956 38.3352C4.60419 38.325 4.58972 38.3177 4.57255 38.3103C4.55356 38.301 4.53547 38.2937 4.51649 38.2881C4.4984 38.2826 4.48213 38.277 4.46314 38.2734C4.44415 38.2697 4.42517 38.2678 4.40618 38.2669C4.38629 38.266 4.36549 38.2669 4.3456 38.2687C4.32752 38.2697 4.31124 38.2715 4.29316 38.2752C4.27417 38.2789 4.25609 38.2844 4.2371 38.2909C4.21721 38.2973 4.19822 38.3075 4.18014 38.3167C4.16839 38.3223 4.15573 38.3223 4.14488 38.3296L2.53367 39.3393C2.51739 39.3494 2.50835 39.3651 2.49388 39.3771C2.47942 39.3882 2.46314 39.3937 2.45048 39.4067L1.14488 40.7393C1.13584 40.7486 1.13222 40.7606 1.12499 40.7698C1.11142 40.7864 1.09877 40.8021 1.08701 40.8196C1.07707 40.8362 1.06802 40.8519 1.06079 40.8685C1.05175 40.887 1.04542 40.9054 1.04 40.9258C1.03457 40.9442 1.02914 40.9627 1.02553 40.982C1.02191 41.0014 1.0192 41.0199 1.0183 41.0393C1.01649 41.0596 1.01829 41.079 1.0192 41.0993C1.02101 41.1186 1.02282 41.1371 1.02643 41.1565C1.03005 41.1759 1.03457 41.1934 1.0418 41.2128C1.04813 41.2331 1.05808 41.2515 1.06622 41.2709C1.07254 41.282 1.07254 41.294 1.07887 41.3051C1.08249 41.3115 1.09063 41.3143 1.09424 41.3198C1.10057 41.33 1.10238 41.3411 1.10962 41.3503L2.19099 42.7651L1.14578 43.8403C1.13403 43.8458 1.13131 43.8578 1.12318 43.867ZM29.3149 82.7403L26.5102 81.091V63.1269L27.0635 62.7864L28.4098 64.562C28.436 64.5971 28.4722 64.6165 28.5056 64.6414C28.5246 64.6561 28.5391 64.6755 28.5608 64.6875C28.625 64.7207 28.6955 64.741 28.7678 64.741C28.8492 64.741 28.9306 64.7198 29.0047 64.6727L29.3149 64.4789V82.7403V82.7403ZM33.0237 76.9777V81.091L30.219 82.7403V63.9132L31.8736 62.8879L33.0228 64.3876V76.9777H33.0237ZM36.7516 78.3713L33.9279 76.711V64.6977L36.7516 62.9488V78.3713ZM40.4496 76.711L37.6548 78.3667V62.3867L38.3022 61.9816L39.6557 63.7471C39.681 63.7803 39.7163 63.7997 39.7498 63.8237C39.7688 63.8385 39.7841 63.8578 39.8058 63.8698C39.87 63.904 39.9396 63.9252 40.0129 63.9252C40.0924 63.9252 40.1729 63.904 40.2452 63.8588L40.4514 63.7323V76.711H40.4496ZM47.153 58.086L46.4821 58.7699L45.5075 57.4982L46.314 56.9933L47.153 58.086ZM46.1033 53.6368L47.1521 54.9962L46.4821 55.6801L45.4405 54.3151L46.1033 53.6368ZM44.7299 54.8845L45.7715 56.2504L44.6024 56.9813C44.5943 56.986 44.5906 56.9943 44.5834 56.9989C44.5753 57.0044 44.5662 57.0063 44.559 57.0118C44.5409 57.0266 44.5319 57.0469 44.5165 57.0635C44.4957 57.0856 44.4749 57.1059 44.4595 57.1318C44.4442 57.1558 44.4351 57.1835 44.4243 57.2102C44.4134 57.2388 44.4035 57.2665 44.398 57.2951C44.3926 57.3237 44.3935 57.3514 44.3944 57.38C44.3944 57.4105 44.3944 57.4391 44.4008 57.4714C44.4062 57.4991 44.4188 57.5249 44.4288 57.5517C44.4378 57.5729 44.4405 57.5969 44.4523 57.6172C44.4568 57.6246 44.465 57.6274 44.4695 57.6338C44.4749 57.6421 44.4767 57.6532 44.483 57.6606L45.7724 59.3412L40.6675 62.5243C40.6666 62.5243 40.6666 62.5243 40.6666 62.5243L40.1223 62.8574L38.7669 61.0882C38.7534 61.0707 38.7353 61.0624 38.7208 61.0476C38.6973 61.0246 38.6747 61.0015 38.6476 60.9849C38.625 60.9701 38.6006 60.9618 38.5771 60.9526C38.5472 60.9396 38.5201 60.9295 38.4885 60.924C38.4604 60.9184 38.4333 60.9193 38.4053 60.9203C38.3764 60.9203 38.3483 60.9203 38.3185 60.9258C38.2886 60.9332 38.2615 60.9452 38.2317 60.9581C38.2127 60.9673 38.1919 60.9692 38.1738 60.9793L36.9695 61.7343C36.9695 61.7352 36.9686 61.7352 36.9686 61.7352L33.6928 63.7637L32.3384 61.9964C32.3248 61.9788 32.3067 61.9705 32.2914 61.9557C32.2688 61.9336 32.2471 61.9105 32.2217 61.8948C32.1964 61.8791 32.1693 61.869 32.1431 61.8588C32.1169 61.8478 32.0906 61.8376 32.0626 61.8321C32.0328 61.8265 32.0038 61.8275 31.9731 61.8284C31.946 61.8284 31.9188 61.8284 31.8926 61.8339C31.8619 61.8404 31.8339 61.8533 31.8049 61.8662C31.7859 61.8745 31.7651 61.8755 31.7471 61.8865L29.5319 63.2589C29.531 63.2589 29.531 63.2598 29.531 63.2598C29.5301 63.2607 29.5301 63.2607 29.5301 63.2607L28.8772 63.6696L27.5328 61.8967C27.5183 61.8773 27.4984 61.8671 27.4812 61.8505C27.4613 61.8312 27.4414 61.8109 27.4188 61.7961C27.3908 61.7767 27.361 61.7656 27.3293 61.7527C27.3067 61.7444 27.2841 61.7343 27.2606 61.7306C27.2281 61.7241 27.1973 61.7241 27.1648 61.7259C27.1386 61.7259 27.1132 61.7259 27.0879 61.7306C27.0572 61.737 27.0291 61.7499 26.9993 61.7629C26.9803 61.7712 26.9595 61.773 26.9423 61.7832L25.8257 62.4698C25.8248 62.4698 25.8248 62.4716 25.8239 62.4716C25.823 62.4726 25.8212 62.4726 25.8203 62.4735L25.6702 62.5695L24.4487 60.9766L25.9993 60.0546C26.0165 60.0444 26.0255 60.0287 26.0409 60.0167C26.0653 59.9974 26.0897 59.978 26.1096 59.9549C26.1286 59.9318 26.1431 59.9078 26.1575 59.8829C26.172 59.858 26.1847 59.8322 26.1946 59.8036C26.2046 59.774 26.2091 59.7436 26.2136 59.7113C26.2154 59.6919 26.2244 59.6753 26.2244 59.655V57.1225L27.0653 56.6076L28.4125 58.3749C28.4179 58.3823 28.427 58.3851 28.4324 58.3915C28.4387 58.3998 28.4414 58.41 28.4487 58.4164C28.4695 58.4377 28.4957 58.4478 28.5192 58.4644C28.5355 58.4755 28.5463 58.4903 28.5635 58.4995C28.5716 58.5041 28.5789 58.5078 28.5861 58.5115C28.644 58.5373 28.7064 58.553 28.7688 58.553C28.8411 58.553 28.9107 58.53 28.9767 58.494C28.9857 58.4894 28.9957 58.4921 29.0038 58.4866L33.4767 55.7013L34.8411 57.4696C34.8456 57.4751 34.8537 57.4769 34.8583 57.4834C34.8655 57.4917 34.8673 57.5009 34.8745 57.5074C34.8962 57.5295 34.9243 57.5406 34.9487 57.5582C34.9641 57.5692 34.9749 57.5831 34.9912 57.5905C34.9993 57.5951 35.0065 57.5997 35.0138 57.6034C35.0716 57.6292 35.134 57.6449 35.1964 57.6449C35.2688 57.6449 35.3384 57.6218 35.4035 57.5858C35.4125 57.5821 35.4225 57.584 35.4306 57.5785L38.6449 55.5804C38.653 55.5758 38.6566 55.5666 38.6639 55.5619C38.6729 55.5555 38.6829 55.5527 38.6919 55.5453C38.7091 55.5315 38.7163 55.513 38.7308 55.4973C38.7516 55.4752 38.7733 55.453 38.7886 55.4272C38.804 55.4023 38.814 55.3746 38.8248 55.346C38.8348 55.3192 38.8438 55.2934 38.8492 55.2648C38.8546 55.2352 38.8537 55.2057 38.8528 55.1743C38.8528 55.1466 38.8519 55.118 38.8465 55.0903C38.8393 55.059 38.8275 55.0313 38.8149 55.0008C38.8067 54.9814 38.8049 54.9621 38.795 54.9436C38.7896 54.9353 38.7814 54.9298 38.776 54.9233C38.7697 54.9141 38.7678 54.9039 38.7615 54.8965L38.4912 54.5514L38.3745 54.3779C38.3718 54.3732 38.3673 54.3714 38.3646 54.3677C38.361 54.3622 38.3601 54.3566 38.3565 54.352L37.4758 53.2159L38.2995 52.7019L39.653 54.4683C39.6584 54.4757 39.6666 54.4775 39.672 54.4849C39.6774 54.4923 39.6811 54.5034 39.6892 54.5098C39.71 54.5311 39.7362 54.5421 39.7597 54.5587C39.7751 54.5698 39.7859 54.5827 39.8031 54.5911C39.8112 54.5957 39.8185 54.6003 39.8266 54.604C39.8845 54.6298 39.946 54.6455 40.0084 54.6455C40.0807 54.6455 40.1503 54.6224 40.2154 54.5864C40.2245 54.5827 40.2344 54.5846 40.2425 54.5791L41.5129 53.7909L42.8764 55.5592C42.8818 55.5665 42.8899 55.5684 42.8953 55.5749C42.9026 55.5832 42.9044 55.5933 42.9125 55.6007C42.9324 55.621 42.9595 55.6311 42.983 55.6478C42.9984 55.6588 43.0102 55.6727 43.0273 55.6819C43.0355 55.6856 43.0427 55.6902 43.05 55.6939C43.1078 55.7198 43.1693 55.7364 43.2317 55.7364C43.304 55.7364 43.3736 55.7114 43.4396 55.6764C43.4487 55.6718 43.4586 55.6736 43.4668 55.6681L44.7299 54.8845ZM29.3149 35.7059V36.8272L28.3691 36.2651V35.1494L29.3149 35.7059ZM28.3691 34.0843V32.9593L29.3149 33.5168V34.6418L28.3691 34.0843ZM29.3149 37.8968V39.0117L28.3691 38.4542V37.3338L29.3149 37.8968ZM29.3149 40.0776V41.198L28.3691 40.636V39.5202L29.3149 40.0776ZM29.3149 42.2667V43.3825L28.3691 42.8251V41.7047L29.3149 42.2667ZM29.5409 44.5823C29.5418 44.5832 29.5418 44.5823 29.5427 44.5832C29.549 44.5869 29.5581 44.586 29.5644 44.5896C29.625 44.621 29.6928 44.645 29.7669 44.645C29.8411 44.645 29.9071 44.6229 29.9695 44.5896C29.9767 44.5869 29.9848 44.5869 29.9912 44.5832H29.9921L31.1738 43.8892V47.4635C31.1738 47.4728 31.1783 47.4801 31.1792 47.4885C31.1811 47.5208 31.1892 47.5494 31.1982 47.5826C31.2055 47.6112 31.2127 47.6398 31.2254 47.6675C31.2299 47.6758 31.2299 47.686 31.2344 47.6933C31.2416 47.7053 31.2534 47.71 31.2606 47.7201C31.2923 47.7672 31.3302 47.8059 31.3763 47.8373C31.3935 47.8493 31.4062 47.8604 31.4243 47.8696C31.4848 47.901 31.5527 47.925 31.6268 47.925C31.7018 47.925 31.7688 47.9019 31.832 47.8687C31.8393 47.865 31.8465 47.8668 31.8528 47.8622L35.5617 45.6814C35.5789 45.6713 35.5888 45.6556 35.6042 45.6436C35.6286 45.6242 35.653 45.6058 35.6729 45.5818C35.6919 45.5587 35.7073 45.5347 35.7217 45.5079C35.7362 45.4839 35.7489 45.459 35.7579 45.4322C35.7697 45.4009 35.7733 45.3695 35.7769 45.3363C35.7787 45.3169 35.7877 45.3012 35.7877 45.2818V43.3585L36.7525 42.7965V46.106L33.3348 48.1142C33.3329 48.1142 33.3302 48.116 33.3275 48.1151C33.3094 48.1142 33.2932 48.1179 33.2751 48.1188C33.2561 48.1197 33.2362 48.1234 33.2163 48.1271C33.1973 48.1317 33.1774 48.1345 33.1584 48.1419C33.1413 48.1483 33.1268 48.1585 33.1105 48.1649C33.0988 48.1714 33.087 48.1714 33.0753 48.1779L31.8067 48.9568L30.4505 47.1894C30.4442 47.1811 30.4351 47.1784 30.4297 47.171C30.4243 47.1636 30.4216 47.1553 30.4152 47.1488C30.4062 47.1396 30.3953 47.1359 30.3854 47.1285C30.3682 47.1138 30.3528 47.0999 30.3329 47.0879C30.3176 47.0778 30.3031 47.0695 30.2868 47.0621C30.2678 47.0528 30.2507 47.0464 30.2308 47.0409C30.2118 47.0344 30.1937 47.0289 30.1738 47.0252C30.1557 47.0215 30.1395 47.0196 30.1214 47.0178C30.1015 47.0169 30.0816 47.0178 30.0617 47.0196C30.0427 47.0215 30.0228 47.0233 30.0029 47.027C29.9857 47.0307 29.9704 47.0353 29.9532 47.0409C29.9324 47.0482 29.9134 47.0584 29.8944 47.0676C29.8827 47.0732 29.8709 47.0741 29.8601 47.0805L28.5897 47.8687L28.3718 47.5863V43.8929L29.5409 44.5823ZM42.5364 36.1304C42.5192 36.1405 42.5102 36.1562 42.4948 36.1682C42.4695 36.1876 42.4442 36.207 42.4243 36.2319C42.4053 36.2541 42.3917 36.2771 42.3773 36.303C42.3619 36.3288 42.3483 36.3537 42.3384 36.3823C42.3284 36.4128 42.3239 36.4423 42.3203 36.4746C42.3176 36.494 42.3085 36.5106 42.3085 36.5309V40.636L39.5038 42.2916V41.1675L41.1268 40.2105C41.144 40.2004 41.153 40.1847 41.1684 40.1727C41.1937 40.1533 41.2181 40.1339 41.2389 40.1099C41.2579 40.0878 41.2715 40.0638 41.2859 40.0379C41.3013 40.0121 41.314 39.9872 41.3239 39.9595C41.3339 39.929 41.3384 39.8986 41.342 39.8663C41.3447 39.8469 41.3537 39.8303 41.3537 39.81V37.631C41.3537 37.6209 41.3492 37.6126 41.3483 37.6033C41.3465 37.5729 41.3384 37.5452 41.3302 37.5147C41.3221 37.4834 41.314 37.4538 41.3004 37.4252C41.2968 37.4169 41.2968 37.4077 41.2923 37.4003C41.2823 37.3837 41.2679 37.3735 41.2561 37.3588C41.2371 37.3329 41.219 37.308 41.1955 37.2868C41.1729 37.2665 41.1476 37.2517 41.1223 37.2369C41.0988 37.2222 41.0753 37.2093 41.049 37.2C41.0183 37.189 40.9876 37.1843 40.955 37.1806C40.936 37.1788 40.9207 37.1696 40.9017 37.1696C40.8926 37.1696 40.8845 37.1742 40.8763 37.1751C40.8456 37.177 40.8167 37.1853 40.7859 37.1936C40.757 37.2019 40.7281 37.2093 40.7009 37.2222C40.6928 37.2268 40.6829 37.2259 40.6756 37.2314L38.8266 38.3213C38.8094 38.3315 38.8004 38.3472 38.785 38.3592C38.7597 38.3786 38.7353 38.3979 38.7154 38.4219C38.6964 38.4441 38.682 38.4681 38.6675 38.4939C38.6521 38.5198 38.6395 38.5438 38.6295 38.5724C38.6196 38.6028 38.615 38.6333 38.6105 38.6656C38.6087 38.685 38.5997 38.7016 38.5997 38.7219V40.6378L36.974 41.6041C36.974 41.6041 36.9731 41.6041 36.9731 41.605L35.785 42.2981V40.9036C35.785 40.8944 35.7805 40.8861 35.7796 40.8759C35.7778 40.8455 35.7697 40.8169 35.7615 40.7855C35.7534 40.7541 35.7452 40.7255 35.7326 40.6978C35.7281 40.6895 35.7281 40.6793 35.7235 40.672C35.7136 40.6553 35.6991 40.6461 35.6883 40.6314C35.6684 40.6046 35.6485 40.5797 35.6241 40.5575C35.6033 40.5381 35.5798 40.5243 35.5563 40.5105C35.531 40.4948 35.5056 40.4809 35.4767 40.4717C35.4478 40.4615 35.4179 40.4569 35.3872 40.4532C35.3682 40.4505 35.3519 40.4422 35.332 40.4422C35.3221 40.4422 35.314 40.4468 35.3049 40.4477C35.2742 40.4495 35.2461 40.4578 35.2154 40.4662C35.1865 40.4745 35.1584 40.4818 35.1313 40.4957C35.1223 40.4994 35.1123 40.4994 35.1051 40.5049L33.2461 41.6041C33.229 41.6142 33.2199 41.6299 33.2046 41.6419C33.1792 41.6613 33.1548 41.6807 33.1349 41.7047C33.1159 41.7268 33.1024 41.7508 33.0879 41.7757C33.0726 41.8016 33.0599 41.8265 33.0499 41.8551C33.04 41.8856 33.0355 41.916 33.0319 41.9474C33.0292 41.9668 33.0201 41.9834 33.0201 42.0037V44.1854C33.0201 44.1946 33.0246 44.2029 33.0255 44.2113C33.0273 44.2417 33.0355 44.2712 33.0436 44.3017C33.0518 44.3322 33.059 44.3617 33.0725 44.3894C33.0762 44.3977 33.0762 44.4078 33.0807 44.4143C33.087 44.4263 33.0997 44.4309 33.106 44.4411C33.1376 44.4881 33.1765 44.5278 33.2235 44.5601C33.2398 44.5712 33.2525 44.5823 33.2706 44.5915C33.3311 44.6229 33.399 44.6469 33.4731 44.6469C33.5481 44.6469 33.615 44.6238 33.6774 44.5906C33.6847 44.5869 33.6928 44.5887 33.6982 44.585L34.88 43.891V45.0179L32.0753 46.6671V43.0946C32.0753 43.0844 32.0707 43.0761 32.0698 43.0678C32.068 43.0373 32.0599 43.0087 32.0518 42.9773C32.0436 42.946 32.0364 42.9183 32.0237 42.8897C32.0192 42.8814 32.0192 42.8721 32.0147 42.8638C32.0047 42.8472 31.9894 42.8371 31.9785 42.8223C31.9595 42.7955 31.9396 42.7706 31.9161 42.7494C31.8944 42.73 31.87 42.7162 31.8456 42.7014C31.8212 42.6857 31.7959 42.6728 31.7688 42.6626C31.7389 42.6516 31.7082 42.6469 31.6756 42.6433C31.6575 42.6405 31.6413 42.6322 31.6223 42.6322C31.6132 42.6322 31.6051 42.6368 31.597 42.6377C31.5653 42.6396 31.5364 42.6479 31.5056 42.6562C31.4767 42.6645 31.4487 42.6719 31.4225 42.6848C31.4134 42.6885 31.4044 42.6885 31.3971 42.694L30.2154 43.3862V42.0028V39.8127V37.631V35.4401V34.0502L33.2461 35.8397H33.2471C33.2543 35.8434 33.2633 35.8434 33.2697 35.8471C33.3311 35.8794 33.398 35.9015 33.4722 35.9015C33.5463 35.9015 33.6123 35.8794 33.6747 35.8471C33.682 35.8434 33.6901 35.8443 33.6955 35.8406C33.6964 35.8406 33.6973 35.8406 33.6982 35.8406L44.1648 29.6784V31.0702V33.25V35.1724L42.5364 36.1304ZM43.2136 46.0792L43.7136 46.3727L43.2136 46.6643V46.0792ZM33.6277 51.3111L32.587 49.9461L33.2651 49.265L34.1485 50.4223C34.1485 50.4223 34.1494 50.4223 34.1494 50.4233C34.1503 50.4242 34.1503 50.4242 34.1503 50.4242L34.3058 50.6263L33.6277 51.3111ZM35.0897 51.6129L36.1376 52.9714L35.3058 53.4873L34.4053 52.3078C34.4044 52.3069 34.4035 52.306 34.4026 52.305C34.4008 52.3041 34.4008 52.3023 34.3999 52.3004L34.2615 52.126L35.0897 51.6129ZM32.9143 51.8796L32.0906 52.3881L31.0481 51.0287L31.8736 50.5137L32.9143 51.8796ZM30.4197 50.211L29.3727 48.8525L30.0509 48.1659L31.0924 49.5244L30.4197 50.211ZM31.6268 53.2787C31.6521 53.3128 31.6874 53.3313 31.7199 53.3553C31.7398 53.371 31.7552 53.3904 31.7769 53.4014L31.625 53.4919L29.9921 52.5348C29.9758 52.5256 29.9595 52.5247 29.9433 52.5173C29.9116 52.5035 29.8818 52.4915 29.8492 52.4859C29.8239 52.4804 29.7986 52.4804 29.7733 52.4804C29.7416 52.4795 29.7109 52.4804 29.6792 52.4868C29.6512 52.4933 29.625 52.5044 29.5979 52.5145C29.5789 52.5228 29.559 52.5238 29.5418 52.5339L28.37 53.2242V52.1315L28.4107 52.186C28.4369 52.2201 28.4722 52.2404 28.5056 52.2644C28.5246 52.2801 28.54 52.2995 28.5617 52.3124C28.6259 52.3456 28.6964 52.3669 28.7688 52.3669C28.8492 52.3669 28.9306 52.3456 29.0038 52.2995L30.2715 51.5123L31.6268 53.2787ZM28.4315 55.3654L29.3058 56.8964L28.8122 57.3967L27.776 56.0382L28.4315 55.3654ZM28.8212 54.0244L29.7678 53.466L30.7181 54.0244L29.7678 54.5818L28.8212 54.0244ZM30.219 55.381L31.8483 54.4259C31.8492 54.4259 31.8492 54.4259 31.8492 54.4249H31.851C31.851 54.4249 31.851 54.424 31.8519 54.424C31.8519 54.4231 31.8528 54.424 31.8528 54.4231L33.9351 53.1919L34.2579 53.6155L30.219 56.1304V55.381V55.381ZM34.8673 54.4443L35.917 55.8102L35.2389 56.4913L34.1892 55.13L34.8673 54.4443ZM35.851 54.2284L36.7009 53.7014L37.3248 54.508L36.9758 54.7156L36.4568 55.0202L35.851 54.2284ZM36.8465 52.4001L35.8004 51.0425L36.4785 50.3559L36.9442 50.9632C36.9451 50.9632 36.9451 50.9632 36.9451 50.9641L37.5138 51.7144L36.8465 52.4001ZM37.4161 50.0827L36.8763 49.3785C36.87 49.3702 36.8619 49.3675 36.8565 49.361C36.8501 49.3536 36.8483 49.3435 36.8411 49.3379C36.8329 49.3296 36.823 49.3269 36.8158 49.3195L37.2028 49.0943L38.1485 49.6517L37.4161 50.0827ZM37.4297 48.1631C37.4125 48.1539 37.3944 48.152 37.3773 48.1446C37.3474 48.1317 37.3185 48.1206 37.2859 48.1142C37.2606 48.1086 37.2353 48.1086 37.21 48.1086C37.1774 48.1077 37.1467 48.1086 37.115 48.116C37.0879 48.1216 37.0617 48.1326 37.0355 48.1428C37.0165 48.1502 36.9966 48.1511 36.9794 48.1622L34.6205 49.5391L34.0337 48.7685L37.2037 46.9043L38.8266 47.8613L40.0029 48.5609L39.0545 49.1192L37.4297 48.1631ZM38.6015 43.3585V46.6634L37.6557 46.106V42.8002L38.6015 43.3585ZM38.1051 42L38.6015 41.7047V42.2916L38.1051 42ZM39.5056 47.1977V43.8919L42.3103 45.5476V47.1968L40.9035 48.0283L39.5056 47.1977ZM39.9559 43.0918L42.3103 41.701V44.4817L39.9559 43.0918ZM39.5056 40.1016V38.9868L40.4505 38.4302V39.5451L39.5056 40.1016ZM34.8818 41.7028V42.8251L33.927 43.3843V42.2667L34.8818 41.7028ZM28.6621 49.4228L29.7091 50.7813L28.8791 51.2963L28.8293 51.2299C28.8284 51.2299 28.8275 51.2299 28.8275 51.228C28.8266 51.228 28.8266 51.2262 28.8257 51.2253L28.2715 50.5091C28.2715 50.5091 28.2706 50.5091 28.2706 50.5082L27.8402 49.9378L28.6621 49.4228ZM27.2136 49.1211L26.5508 48.2674L27.5337 47.9914L27.5563 48.0219C27.5572 48.0237 27.559 48.0237 27.5608 48.0256C27.5617 48.0274 27.5617 48.0293 27.5635 48.0311L27.8791 48.4372L27.2136 49.1211ZM27.465 34.3501V36.53V38.72V40.9008V43.0918V47.0528L25.6512 47.5623C25.5952 47.5789 25.54 47.6057 25.4903 47.6453C25.4686 47.6638 25.455 47.6887 25.4369 47.7099C25.4243 47.7238 25.4143 47.7339 25.4035 47.7496C25.3546 47.8216 25.3275 47.9038 25.3239 47.9896C25.3239 47.997 25.3185 48.0007 25.3185 48.008V50.6724C25.3185 50.6835 25.3239 50.6918 25.3248 50.7029C25.3266 50.7334 25.3348 50.762 25.3429 50.7933C25.351 50.8247 25.3601 50.8533 25.3736 50.8819C25.3782 50.8912 25.3782 50.9013 25.3836 50.9105C25.3899 50.9216 25.4026 50.9253 25.4089 50.9355C25.4405 50.9807 25.4785 51.0185 25.5237 51.049C25.5409 51.0601 25.5536 51.0721 25.5707 51.0813C25.6313 51.1117 25.6982 51.1339 25.7715 51.1339C25.8483 51.1339 25.917 51.1108 25.9794 51.0767C25.9876 51.0721 25.9966 51.0739 26.0029 51.0693L27.0626 50.4223L27.464 50.9521V51.8334V54.0253V54.759C27.3004 54.867 27.2317 55.0636 27.2733 55.2472L26.8953 55.6358L25.5382 56.4645C25.5219 56.4747 25.5129 56.4894 25.4984 56.5014C25.474 56.5208 25.4505 56.5402 25.4306 56.5642C25.4116 56.5863 25.3971 56.6113 25.3827 56.6362C25.3682 56.6611 25.3565 56.6869 25.3474 56.7137C25.3366 56.7451 25.332 56.7755 25.3284 56.8088C25.3257 56.8272 25.3176 56.842 25.3176 56.8604V59.391L24.6584 59.7823V34.6159L27.4631 32.9593V34.3501H27.465ZM26.5011 49.6886L26.2235 49.8584V49.3324L26.5011 49.6886ZM39.012 52.1315L39.6756 51.4486L40.7217 52.808L40.0536 53.491L39.012 52.1315ZM43.9396 53.9044L43.2769 54.5809L42.2281 53.2215L42.8971 52.5385L43.9396 53.9044ZM44.1684 48.5627V50.4768L41.3528 52.1315L40.0716 50.4685C40.0653 50.4602 40.0563 50.4574 40.0499 50.4491C40.0436 50.4417 40.0418 50.4325 40.0346 50.426C40.0255 50.4159 40.0138 50.4131 40.0038 50.4057C39.9876 50.391 39.9722 50.379 39.9541 50.3679C39.9387 50.3568 39.9243 50.3485 39.9071 50.3411C39.8881 50.3319 39.8691 50.3245 39.8501 50.3199C39.8311 50.3144 39.8149 50.3088 39.7959 50.3051C39.7769 50.3014 39.7588 50.2996 39.7398 50.2977C39.7199 50.2968 39.7 50.2977 39.6801 50.2996C39.6612 50.3014 39.644 50.3033 39.625 50.307C39.606 50.3107 39.5879 50.3162 39.5689 50.3227C39.5499 50.3291 39.5319 50.3384 39.5129 50.3476C39.502 50.354 39.4894 50.354 39.4785 50.3614L38.2217 51.145L37.9758 50.8192L39.2751 50.0559L39.2787 50.0541L41.1277 48.9632C41.1277 48.9632 41.1277 48.9632 41.1277 48.9623C41.1286 48.9623 41.1286 48.9623 41.1286 48.9623L42.9885 47.8631C42.9885 47.8631 42.9885 47.8631 42.9894 47.8631L44.1684 47.171V48.5627V48.5627ZM46.0183 47.1977L45.0726 47.7589V46.3727C45.0726 46.3625 45.068 46.3542 45.0671 46.3459C45.0662 46.3256 45.0626 46.3062 45.059 46.2859C45.0545 46.2647 45.0499 46.2444 45.0427 46.2241C45.0355 46.2047 45.0291 46.1872 45.0201 46.1687C45.0165 46.1604 45.0165 46.1512 45.012 46.1429C45.0065 46.1346 44.9984 46.13 44.993 46.1216C44.9821 46.105 44.9704 46.0903 44.9568 46.0746C44.9423 46.057 44.9288 46.0423 44.9116 46.0275C44.8962 46.0146 44.8827 46.0035 44.8655 45.9924C44.8574 45.9869 44.8528 45.9777 44.8447 45.9731L43.2127 45.0151V40.9018V36.7976L44.8447 35.8397C44.8619 35.8295 44.8709 35.8138 44.8863 35.8018C44.9116 35.7825 44.9369 35.7631 44.9568 35.7382C44.9758 35.716 44.9894 35.692 45.0038 35.6671C45.0192 35.6413 45.0328 35.6163 45.0427 35.5877C45.0527 35.5573 45.0572 35.5277 45.0608 35.4954C45.0635 35.4761 45.0726 35.4585 45.0726 35.4391V33.2491V31.0692V29.145L46.0183 28.5876V47.1977V47.1977ZM47.8673 26.4326L46.2443 27.3897L44.3944 28.4796L33.9279 34.6408V18.2142L47.8673 10.0051V26.4326ZM33.4758 0.986574L47.4152 9.20587L33.4758 17.415L19.5454 9.20587L33.4758 0.986574ZM19.0933 26.4317V10.0051L33.0228 18.2133V34.6399L29.9939 32.8514C29.993 32.8514 29.993 32.8504 29.9921 32.8504L28.1422 31.7596C28.1422 31.7596 28.1413 31.7596 28.1404 31.7596L28.0581 31.7107L24.4333 29.5705C24.4333 29.5705 24.4333 29.5695 24.4324 29.5695L22.6006 28.4944L22.5753 28.4787L19.0933 26.4317ZM23.3022 29.9728L22.8022 30.2691V29.6784L23.3022 29.9728ZM22.5762 31.4698C22.5771 31.4689 22.5771 31.4689 22.5762 31.4698L24.2055 30.5054L27.0138 32.1601L24.2082 33.8176L21.4026 32.1601L22.5762 31.4698ZM20.9523 53.9635V53.4393V47.7755V47.3011V44.262V32.9593L23.757 34.6159V59.7851L20.9523 58.1285V53.9635ZM20.0481 45.2551V45.9694L19.7398 45.5698L20.0481 45.2551ZM19.0291 46.142L20.0481 47.4608V47.5171L19.2434 48.0173L18.2018 46.6578L19.0291 46.142ZM13.3592 46.5794L14.2109 46.0515L14.9794 47.0528L14.1313 47.5817L13.3592 46.5794ZM13.4188 48.1529L12.7498 48.8377L10.1648 45.4682L10.9695 44.9708L13.4188 48.1529ZM15.5852 47.8853L19.8474 53.4319L19.1774 54.1167L14.9206 48.5682L15.5852 47.8853ZM16.5698 47.6703L17.4243 47.1405L18.7796 48.9079C18.8058 48.942 18.8411 48.9614 18.8736 48.9854C18.8926 49.0002 18.908 49.0195 18.9297 49.0315C18.9939 49.0648 19.0635 49.086 19.1358 49.086C19.2163 49.086 19.2977 49.0648 19.3709 49.0186L20.0481 48.5978V52.1971L16.5698 47.6703ZM17.1955 43.7969L18.238 45.1554L17.5725 45.8392L16.5255 44.4807L17.1955 43.7969ZM15.8149 45.0511L16.8619 46.4096L16.0301 46.9264L14.9885 45.5679L15.8149 45.0511ZM13.9803 42.7051L15.0237 44.0664L14.3592 44.7493L13.3121 43.3834L13.9803 42.7051ZM12.6006 43.9519L13.6494 45.3187L12.8176 45.8356L11.7742 44.4678L12.6006 43.9519ZM10.766 41.6068L11.8085 42.9727L11.1458 43.6492L10.097 42.2889L10.766 41.6068ZM7.55356 40.516L8.59605 41.8745L7.93059 42.5584L6.88358 41.1999L7.55356 40.516ZM4.33927 39.4177L5.38086 40.7827L4.71721 41.4601L3.66929 40.1081L4.33927 39.4177ZM3.3022 43.5551C3.31215 43.5495 3.31757 43.5385 3.32661 43.5329C3.33113 43.5292 3.33837 43.5302 3.34289 43.5265C3.36097 43.5126 3.36911 43.4942 3.38448 43.4776C3.40618 43.4545 3.42878 43.4333 3.44416 43.4074C3.46043 43.3825 3.46947 43.3548 3.48032 43.3271C3.49117 43.2994 3.50112 43.2736 3.50654 43.245C3.51197 43.2155 3.51106 43.1868 3.51016 43.1555C3.51016 43.1269 3.51016 43.0982 3.50473 43.0696C3.4984 43.0392 3.48575 43.0124 3.47399 42.9829C3.46585 42.9635 3.46314 42.9395 3.45229 42.9201C3.44777 42.9127 3.43963 42.9091 3.43421 42.9017C3.42969 42.8943 3.42878 42.8851 3.42336 42.8786L3.15573 42.5251C3.15482 42.5251 3.15482 42.5242 3.15482 42.5233L2.13312 41.1879L2.95772 40.6784L4.32209 42.4384C4.32752 42.4458 4.33656 42.4485 4.34108 42.4541C4.34741 42.4624 4.35012 42.4725 4.35736 42.479C4.37815 42.4993 4.40437 42.5094 4.42788 42.5261C4.44325 42.5371 4.4541 42.551 4.47128 42.5602C4.47942 42.5639 4.48755 42.5685 4.49479 42.5731C4.55265 42.598 4.61414 42.6146 4.67652 42.6146C4.74886 42.6146 4.81848 42.5907 4.88358 42.5556C4.89262 42.551 4.90256 42.5528 4.9098 42.5482L6.1711 41.7702L7.53548 43.5394C7.5409 43.5458 7.54904 43.5477 7.55446 43.5551C7.5617 43.5634 7.56441 43.5745 7.57255 43.5818C7.59334 43.6031 7.62047 43.6132 7.64398 43.6298C7.65935 43.64 7.67019 43.6538 7.68647 43.6621C7.69461 43.6667 7.70184 43.6704 7.70907 43.6741C7.76694 43.7 7.82933 43.7157 7.89081 43.7157C7.96405 43.7157 8.03367 43.6926 8.09877 43.6566C8.10781 43.652 8.11775 43.6547 8.12589 43.6492L9.38629 42.8629L10.4342 44.2223L9.2579 44.9505C9.24976 44.9551 9.24524 44.9643 9.23801 44.9699C9.23077 44.9754 9.22083 44.9763 9.2145 44.9819C9.19732 44.9966 9.18918 45.0151 9.17381 45.0308C9.15302 45.0539 9.13132 45.0751 9.11595 45.1009C9.09967 45.1258 9.09063 45.1535 9.07978 45.1803C9.06893 45.208 9.05898 45.2347 9.05356 45.2634C9.04904 45.292 9.04994 45.3206 9.04994 45.3501C9.04994 45.3806 9.04994 45.4092 9.05627 45.4396C9.06169 45.4682 9.07435 45.495 9.0852 45.5227C9.09425 45.543 9.09605 45.5661 9.1069 45.5854C9.11142 45.5928 9.11956 45.5956 9.12408 45.603C9.13041 45.6122 9.13131 45.6224 9.13855 45.6307L12.3528 49.8197C12.3583 49.8261 12.3664 49.8289 12.3718 49.8354C12.3791 49.8446 12.3809 49.8548 12.389 49.8621C12.4098 49.8824 12.436 49.8926 12.4595 49.9092C12.4749 49.9203 12.4857 49.9341 12.5029 49.9434C12.5111 49.947 12.5183 49.9507 12.5264 49.9553C12.5834 49.9812 12.6458 49.9978 12.7082 49.9978C12.7805 49.9978 12.8501 49.9738 12.9152 49.9387C12.9243 49.9332 12.9342 49.936 12.9423 49.9304L14.21 49.1432L18.7796 55.0986C18.785 55.106 18.7932 55.1079 18.7986 55.1153C18.8058 55.1226 18.8076 55.1337 18.8158 55.1402C18.8366 55.1614 18.8637 55.1725 18.8872 55.1891C18.9026 55.2002 18.9134 55.2131 18.9297 55.2214C18.9378 55.226 18.9451 55.2306 18.9532 55.2343C19.0102 55.2601 19.0725 55.2758 19.1349 55.2758C19.2073 55.2758 19.2769 55.2528 19.342 55.2168C19.351 55.2131 19.361 55.2149 19.3691 55.2094L20.0463 54.7885V58.398C20.0463 58.4174 20.0554 58.4358 20.0581 58.4552C20.0617 58.4866 20.0662 58.517 20.0762 58.5466C20.0861 58.5761 20.0997 58.602 20.115 58.6278C20.1286 58.6518 20.1422 58.6758 20.1612 58.697C20.182 58.7228 20.2073 58.7431 20.2335 58.7625C20.248 58.7736 20.257 58.7884 20.2733 58.7985L23.6114 60.7708L22.4586 61.486L21.1033 59.7103C21.0888 59.6919 21.0698 59.6836 21.0545 59.667C21.0319 59.6457 21.0111 59.6236 20.9857 59.6079C20.9595 59.5904 20.9315 59.5811 20.9035 59.5701C20.8791 59.5599 20.8546 59.5507 20.8293 59.5451C20.7968 59.5387 20.7642 59.5396 20.7308 59.5415C20.7073 59.5415 20.6829 59.5415 20.6593 59.547C20.6268 59.5525 20.5979 59.5664 20.5662 59.5802C20.5472 59.5885 20.5273 59.5904 20.5102 59.6005L19.2425 60.3942L16.2778 56.5291C16.2642 56.5116 16.2452 56.5024 16.229 56.4867C16.2073 56.4655 16.1865 56.4433 16.1612 56.4276C16.1367 56.411 16.1096 56.4018 16.0834 56.3916C16.0554 56.3796 16.0291 56.3695 16.0002 56.3639C15.9731 56.3593 15.946 56.3593 15.9188 56.3602C15.8881 56.3602 15.8592 56.3602 15.8275 56.3667C15.7995 56.3732 15.7742 56.3852 15.748 56.3972C15.7272 56.4064 15.7046 56.4082 15.6856 56.4202L14.4261 57.2056L9.84922 51.2492C9.83475 51.2308 9.81486 51.2206 9.79768 51.2049C9.77688 51.1846 9.75699 51.1643 9.73349 51.1477C9.70727 51.1311 9.67924 51.121 9.6503 51.1099C9.62499 51.0988 9.59967 51.0887 9.57254 51.084C9.54452 51.0785 9.51649 51.0794 9.48756 51.0794C9.45862 51.0804 9.42969 51.0804 9.39895 51.0868C9.37182 51.0933 9.3447 51.1062 9.31848 51.1173C9.29859 51.1265 9.27598 51.1283 9.25699 51.1403L7.9975 51.9257L2.13312 44.2851L3.3022 43.5551Z" fill="white"/>
</svg>
