<svg width="99" height="126" viewBox="0 0 99 126" fill="none" xmlns="http://www.w3.org/2000/svg">
<path d="M38.8218 25.2857L41.088 26.6162V27.0688L40.2009 27.5839C39.892 27.7633 39.702 28.098 39.702 28.4599V77.0808C39.702 77.4406 39.891 77.7743 40.197 77.9527L42.9581 79.5725C43.1115 79.6632 43.2818 79.7086 43.4531 79.7086C43.5877 79.7086 43.7233 79.6804 43.8491 79.6239V94.1018C43.8491 94.4607 44.0372 94.7933 44.3431 94.9738L47.0933 96.5936C47.2467 96.6843 47.418 96.7297 47.5893 96.7297C47.7606 96.7297 47.9318 96.6843 48.0853 96.5936L50.8345 94.9738C51.1414 94.7923 51.3285 94.4607 51.3285 94.1018V92.606L52.6046 93.3539C52.7581 93.4446 52.9293 93.49 53.0996 93.49C53.2699 93.49 53.4412 93.4446 53.5946 93.3539L56.3557 91.734C56.6616 91.5546 56.8507 91.222 56.8507 90.8621V71.5247C56.9745 71.5781 57.1052 71.6053 57.2368 71.6053C57.4081 71.6053 57.5784 71.5599 57.7308 71.4692L60.492 69.8494C60.7998 69.6699 60.9879 69.3373 60.9879 68.9774V25.8018L61.8671 25.2867C62.174 25.1073 62.3631 24.7736 62.3631 24.4127V11.4478C62.3631 11.088 62.175 10.7543 61.8681 10.5749L50.8345 4.09146C50.682 4.00175 50.5108 3.95639 50.3395 3.95639C50.1682 3.95639 49.997 4.00175 49.8445 4.09146L38.8218 10.5749C38.5149 10.7554 38.3268 11.088 38.3268 11.4478V24.4127C38.3268 24.7736 38.5159 25.1062 38.8218 25.2857ZM42.9581 77.8287L41.187 76.7894V29.3348L42.9581 30.3811V77.8287ZM43.4531 29.5082L41.6839 28.4629L42.3235 28.0919L42.3245 28.0909C42.3255 28.0909 42.3264 28.0909 42.3274 28.0899L43.4541 27.4206L45.2252 28.4609L43.4531 29.5082ZM44.5896 77.4608L43.9481 77.8327V30.3811L45.7192 29.3348V47.9072V76.7904L44.5896 77.4608C44.5896 77.4608 44.5896 77.4598 44.5896 77.4608ZM47.0943 94.8488L45.3341 93.8115V78.1845L46.4627 77.5152C46.4805 77.5041 46.4904 77.488 46.5062 77.4759C46.5349 77.4547 46.5607 77.4325 46.5844 77.4053C46.6052 77.3821 46.6201 77.3559 46.6349 77.3287C46.6518 77.3005 46.6656 77.2723 46.6765 77.241C46.6874 77.2088 46.6923 77.1755 46.6963 77.1412C46.6983 77.1201 46.7082 77.1019 46.7082 77.0797V48.7842L47.0943 49.013V94.8488V94.8488ZM47.0943 47.8457L46.7082 47.6169V29.3368L47.0943 29.5656V47.8457ZM49.8445 90.8621V93.8115L48.0853 94.8488V49.014L49.8445 47.9768V90.8621ZM52.6056 91.6101L50.8345 90.5708V47.3941L52.6056 46.3539V91.6101ZM55.3667 69.7919V90.5698L53.5956 91.6091V45.7723L55.3667 44.733V69.7919ZM56.7418 69.7254L56.3557 69.4996V44.1514L56.7418 43.9226V69.7254ZM56.9903 42.6082C56.9903 42.6092 56.9903 42.6092 56.9903 42.6082C56.9883 42.6092 56.9883 42.6092 56.9883 42.6092L55.6113 43.4256L52.8531 45.0435H52.8521L50.091 46.6643L48.0843 47.8498V30.1493L50.091 31.3327C50.091 31.3327 50.092 31.3327 50.093 31.3327C50.1009 31.3367 50.1088 31.3367 50.1158 31.3407C50.1831 31.376 50.2563 31.4002 50.3365 31.4002C50.3365 31.4002 50.3375 31.4002 50.3385 31.4002C50.3395 31.4002 50.3405 31.4002 50.3405 31.4002C50.4207 31.4002 50.493 31.376 50.5603 31.3407C50.5682 31.3377 50.5771 31.3377 50.584 31.3337C50.584 31.3337 50.585 31.3337 50.586 31.3337L58.116 26.9075V41.9499L56.9903 42.6082ZM59.5029 68.6861L57.7318 69.7254V43.3369L58.8585 42.6777C58.8773 42.6666 58.8872 42.6495 58.904 42.6364C58.9317 42.6152 58.9594 42.594 58.9822 42.5668C59.003 42.5426 59.0169 42.5164 59.0327 42.4892C59.0495 42.461 59.0644 42.4338 59.0753 42.4025C59.0871 42.3693 59.0911 42.337 59.0951 42.3017C59.098 42.2806 59.1079 42.2614 59.1079 42.2402V26.3259L59.5039 26.0921V68.6861H59.5029ZM60.8781 24.1214L59.7514 24.7817C59.7514 24.7817 59.7514 24.7817 59.7504 24.7817C59.7504 24.7817 59.7504 24.7817 59.7495 24.7817L58.3635 25.5982C58.3635 25.5982 58.3635 25.5982 58.3635 25.5992L50.8345 30.0243V18.2216L60.879 12.3208V24.1214H60.8781ZM50.3395 5.54701L60.3831 11.4478L50.3395 17.3487L40.3068 11.4478L50.3395 5.54701ZM39.8118 12.3208L49.8445 18.2216V30.0223L47.8398 28.8399L46.4637 28.0244C46.4637 28.0244 46.4637 28.0234 46.4627 28.0234L43.7016 26.4025L42.3274 25.5992L39.8138 24.1234V12.3208H39.8118Z" fill="white"/>
</svg>
