<svg width="81" height="96" viewBox="0 0 81 96" fill="none" xmlns="http://www.w3.org/2000/svg">
<path d="M41.3092 4.63254L78.8087 11.98L73.481 51.7394L46.9637 72.023L12.6041 54.3398L7.18443 13.6796L41.3092 4.63254ZM41.2765 3.83997L6.24445 13.1282L11.8009 54.8129L47.0609 72.96L74.2937 52.128L79.7547 11.3794L41.2765 3.83997ZM13.3592 53.8944L46.4572 70.9278V25.4277L8.11581 14.5559L13.3592 53.8944ZM15.0345 52.6341L12.5009 32.6791L20.8257 35.6175L21.0571 38.2894C21.0691 38.4269 21.1646 38.5474 21.3065 38.602L26.6866 40.6901C26.74 40.7101 26.7967 40.7209 26.8526 40.7209C26.9223 40.7209 26.9919 40.7047 27.0539 40.674L29.6115 39.4137C29.6932 39.373 29.7474 39.307 29.7835 39.2348L43.8832 44.8043V66.8897L15.0345 52.6341ZM26.6712 27.0981L25.8671 27.4222L21.4931 25.973L23.2509 25.2364L27.5441 26.7448L26.6712 27.0981ZM28.2355 27.2847L28.9794 38.8746L27.2241 39.7394L26.3194 28.0573L28.2355 27.2847ZM25.3158 28.0343L25.4852 28.0903L26.3891 39.7624L21.8698 38.0083L20.8808 26.5651L25.3158 28.0343ZM43.8832 38.3232L29.449 33.1806L29.0336 26.7125L29.0327 26.7003C29.0284 26.6342 29.0018 26.5728 28.9622 26.5198C28.9502 26.5036 28.933 26.4952 28.9183 26.4806C28.8908 26.453 28.8676 26.423 28.8323 26.403C28.8203 26.3969 28.8057 26.3977 28.7928 26.3923C28.7833 26.3885 28.7782 26.3785 28.7687 26.3754L23.3894 24.4853C23.2819 24.4485 23.1632 24.4516 23.0592 24.4946L20.2366 25.6765C20.2237 25.6819 20.2194 25.6934 20.2083 25.6996C20.1936 25.7072 20.1756 25.708 20.1627 25.7164C20.1352 25.7341 20.1223 25.7625 20.1008 25.7856C20.0836 25.8048 20.0646 25.8186 20.0517 25.8409C20.0234 25.8877 20.0113 25.9392 20.0079 25.9929C20.007 26.006 19.9967 26.016 19.9976 26.0298C19.9976 26.0321 19.9993 26.0336 20.0001 26.0359C20.0001 26.0382 19.9984 26.0405 19.9984 26.0428L20.3235 29.8061L11.7975 27.1411L10.6244 17.9013L43.8832 28.1395V38.3232ZM41.3393 5.3775L8.86659 13.9868L46.8468 24.7564L77.2624 12.4162L41.3393 5.3775ZM13.2715 13.963L41.3393 6.32291L72.8919 12.6236L46.8734 23.1774L13.2715 13.963ZM47.2897 25.3947V70.8226L72.713 51.3738L77.8575 12.9922L47.2897 25.3947ZM75.7135 16.5619L74.6635 25.0974L49.9892 38.1365L50.0477 27.9821L75.7135 16.5619ZM71.5683 50.2709L49.8249 66.1447L49.9522 44.2153L73.9755 30.6992L71.5683 50.2709Z" fill="white"/>
</svg>
