<svg width="90" height="109" viewBox="0 0 90 109" fill="none" xmlns="http://www.w3.org/2000/svg">
<path d="M79.2441 76.1927V71.1875V66.177C79.2441 65.6956 78.8418 65.305 78.3441 65.305H74.0736V61.1717C74.0736 60.6895 73.6704 60.2997 73.1736 60.2997H68.913V56.1612C68.913 55.6798 68.5098 55.2892 68.013 55.2892H63.7407V51.1559C63.7407 50.6745 63.3384 50.2839 62.8407 50.2839H58.5693V46.1462C58.5693 45.6649 58.167 45.2742 57.6693 45.2742H53.3988V41.1401C53.3988 40.6587 52.9956 40.2681 52.4988 40.2681H48.2373V36.1296C48.2373 35.6482 47.835 35.2576 47.3373 35.2576H43.065V31.1243C43.065 30.643 42.6618 30.2523 42.165 30.2523H37.8936V26.9858H57.6684C58.1661 26.9858 58.5684 26.5951 58.5684 26.1138V21.9796H62.8398C63.3375 21.9796 63.7398 21.589 63.7398 21.1076V16.0971C63.7398 15.6158 63.3375 15.2251 62.8398 15.2251H58.5684V11.0918C58.5684 10.6105 58.1661 10.2198 57.6684 10.2198H31.8231C31.3263 10.2198 30.9231 10.6105 30.9231 11.0918V15.2251H26.6616H21.4902H16.3188C15.822 15.2251 15.4188 15.6158 15.4188 16.0971V21.1076V26.1138V30.2523H11.1474C10.6506 30.2523 10.2474 30.643 10.2474 31.1243V56.1612C10.2474 56.6434 10.6506 57.0332 11.1474 57.0332H15.4188V61.1717C15.4188 61.6539 15.822 62.0437 16.3188 62.0437H21.4902C21.987 62.0437 22.3902 61.6539 22.3902 61.1717V57.0332H26.6616C27.1584 57.0332 27.5616 56.6434 27.5616 56.1612V37.0007H30.9231V41.1392C30.9231 41.6206 31.3263 42.0112 31.8231 42.0112H36.0945V46.1454C36.0945 46.6267 36.4977 47.0174 36.9945 47.0174H41.2659V51.155C41.2659 51.6372 41.6691 52.027 42.1659 52.027H46.4373V56.1603C46.4373 56.6425 46.8405 57.0323 47.3373 57.0323H51.5988V61.1708C51.5988 61.653 52.002 62.0428 52.4988 62.0428H56.7693V66.1761C56.7693 66.6583 57.1725 67.0481 57.6693 67.0481H61.9407V71.1866C61.9407 71.6688 62.3439 72.0586 62.8407 72.0586H67.113V76.1919C67.113 76.6741 67.5162 77.0639 68.013 77.0639H73.1736H78.3441C78.8418 77.0647 79.2441 76.675 79.2441 76.1927ZM21.2652 21.3256V25.8958H16.5438V21.3256H21.2652ZM32.0481 30.9054V26.3309H36.7695V30.9054H32.0481ZM26.8866 26.3309H31.5981V30.9054H26.8866V26.3309ZM26.4366 25.8949H21.7152V21.3248H26.4366V25.8949ZM26.8866 31.3414H31.5981V35.9107H26.8866V31.3414ZM32.0481 31.3414H36.7695V35.9107H32.0481V31.3414ZM37.2186 36.3467H41.94V40.9212H37.2186V36.3467ZM42.39 41.3572H47.1114V45.9274H42.39V41.3572ZM47.5614 46.3634H52.2729V50.937H47.5614V46.3634ZM52.7229 51.373H57.4434V55.9423H52.7229V51.373ZM57.8934 56.3783H62.6148V60.9528H57.8934V56.3783ZM63.0648 61.3888H67.7871V65.9581H63.0648V61.3888ZM68.2371 66.395H72.9477V70.9695H68.2371V66.395ZM73.3986 71.4055H78.1191V75.9747H73.3986V71.4055ZM78.1191 70.9695H73.3986V66.395H78.1191V70.9695ZM68.2371 65.959V61.3888H72.9477V65.9581H68.2371V65.959ZM63.0648 60.9528V56.3783H67.7871V60.9528H63.0648ZM57.8934 55.9423V51.373H62.6148V55.9423H57.8934ZM52.7229 50.937V46.3634H57.4434V50.937H52.7229ZM47.5614 45.9274V41.3572H52.2729V45.9274H47.5614ZM42.39 40.9212V36.3467H47.1114V40.9212H42.39ZM37.2186 35.9107V31.3414H41.94V35.9107H37.2186ZM36.9936 25.8949H32.0472V21.3248H57.4425V25.8949H36.9936ZM57.8934 16.3151H62.6148V20.8896H57.8934V16.3151ZM32.0481 15.8791V11.3098H57.4434V15.8791H32.0481ZM31.5981 20.8896H26.8866V16.3151H31.5981V20.8896ZM26.4366 20.8896H21.7152V16.3151H26.4366V20.8896ZM21.2652 20.8896H16.5438V16.3151H21.2652V20.8896ZM16.5438 26.3309H21.2652V30.9054H16.5438V26.3309ZM16.0938 55.9423H11.3724V31.3414H16.0938V55.9423ZM21.2652 56.3783V60.9528H16.5438V56.3783H21.2652ZM21.7152 31.3414H26.4366V36.1287V55.9423H21.7152V31.3414ZM36.7686 36.3467V40.9212H32.0472V36.3467H36.7686ZM41.94 41.3572V45.9274H37.2186V41.3572H41.94ZM47.1114 46.3634V50.937H42.39V46.3634H47.1114ZM52.2729 51.373V55.9423H47.5614V51.373H52.2729ZM57.4434 56.3783V60.9528H52.7229V56.3783H57.4434ZM62.6148 61.3888V65.9581H57.8934V61.3888H62.6148ZM67.7871 66.395V70.9695H63.0648V66.395H67.7871ZM72.9486 71.4055V75.9747H68.238V71.4055H72.9486Z" fill="white"/>
</svg>
