<svg width="100" height="119" viewBox="0 0 100 119" fill="none" xmlns="http://www.w3.org/2000/svg">
<path d="M24.651 49.9295C24.635 49.9467 24.621 49.9629 24.608 49.9819C24.597 49.999 24.588 50.0133 24.58 50.0305C24.57 50.0504 24.563 50.0704 24.557 50.0904C24.55 50.1104 24.544 50.1295 24.54 50.1495C24.537 50.1685 24.534 50.1866 24.533 50.2056C24.532 50.2275 24.533 50.2485 24.534 50.2704C24.536 50.2904 24.538 50.3094 24.543 50.3294C24.547 50.3484 24.552 50.3656 24.559 50.3836C24.567 50.4055 24.577 50.4255 24.587 50.4465C24.593 50.4579 24.594 50.4703 24.601 50.4817C24.606 50.4884 24.614 50.4912 24.619 50.4979C24.626 50.5074 24.627 50.5179 24.635 50.5264L31.744 59.1592C31.773 59.1944 31.813 59.2144 31.849 59.2392C31.87 59.2544 31.886 59.2744 31.91 59.2858C31.981 59.3201 32.058 59.342 32.138 59.342C32.227 59.342 32.318 59.3201 32.399 59.2715L33.792 58.4614L38.854 64.6056C38.883 64.6408 38.923 64.6617 38.96 64.6865C38.981 64.7008 38.996 64.7208 39.02 64.7322C39.091 64.7665 39.168 64.7884 39.248 64.7884C39.337 64.7884 39.428 64.7665 39.509 64.7179L40.902 63.9078L44.182 67.8947C44.21 67.929 44.249 67.949 44.285 67.9738C44.307 67.9899 44.325 68.0099 44.349 68.0223C44.419 68.0566 44.496 68.0775 44.576 68.0775C44.666 68.0775 44.756 68.0556 44.838 68.008L46.239 67.1893L47.736 69.0191C47.764 69.0543 47.804 69.0743 47.84 69.099C47.861 69.1142 47.878 69.1352 47.902 69.1476C47.974 69.1818 48.051 69.2037 48.131 69.2037C48.22 69.2037 48.31 69.1818 48.391 69.1342L49.793 68.3231L51.292 70.1453C51.321 70.1814 51.361 70.2014 51.397 70.2262C51.418 70.2414 51.435 70.2614 51.459 70.2728C51.529 70.3081 51.606 70.329 51.686 70.329C51.703 70.329 51.716 70.3176 51.733 70.3157V88.6026C51.733 88.6226 51.743 88.6398 51.745 88.6588C51.75 88.6931 51.754 88.7255 51.766 88.7578C51.777 88.7854 51.791 88.8111 51.807 88.8368C51.823 88.8625 51.839 88.8892 51.861 88.912C51.883 88.9368 51.91 88.9558 51.937 88.9758C51.954 88.9882 51.965 89.0044 51.984 89.0149L56.086 91.2635C56.087 91.2644 56.087 91.2635 56.088 91.2644C56.095 91.2682 56.105 91.2673 56.112 91.2711C56.179 91.3035 56.254 91.3282 56.336 91.3282C56.418 91.3282 56.492 91.3044 56.56 91.2711C56.568 91.2673 56.578 91.2682 56.584 91.2644C56.585 91.2635 56.585 91.2644 56.586 91.2635L60.688 89.0149C60.707 89.0044 60.718 88.9882 60.735 88.9758C60.762 88.9558 60.789 88.9368 60.811 88.912C60.832 88.8892 60.849 88.8625 60.865 88.8368C60.881 88.8111 60.895 88.7854 60.906 88.7578C60.918 88.7255 60.922 88.6931 60.927 88.6588C60.929 88.6398 60.939 88.6236 60.939 88.6026V84.906L64.313 86.7558H64.314C64.322 86.7605 64.331 86.7596 64.338 86.7634C64.406 86.7967 64.48 86.8195 64.562 86.8195C64.644 86.8195 64.718 86.7977 64.786 86.7634C64.794 86.7596 64.804 86.7596 64.811 86.7558C64.811 86.7558 64.812 86.7558 64.813 86.7558L68.904 84.4948C68.923 84.4852 68.933 84.4691 68.95 84.4557C68.978 84.4357 69.004 84.4167 69.026 84.3929C69.047 84.3691 69.064 84.3434 69.08 84.3167C69.096 84.291 69.11 84.2663 69.121 84.2377C69.133 84.2054 69.138 84.1739 69.142 84.1397C69.144 84.1197 69.154 84.1025 69.154 84.0835V69.8473L75.04 66.4239C75.052 66.4172 75.058 66.4068 75.068 66.4001C75.074 66.3953 75.082 66.3972 75.088 66.3925C75.097 66.3868 75.1 66.3773 75.109 66.3706C75.116 66.3649 75.126 66.362 75.133 66.3554L76.588 64.9702C76.605 64.955 76.611 64.934 76.626 64.9159C76.647 64.8902 76.667 64.8655 76.682 64.836C76.696 64.8084 76.703 64.7798 76.71 64.7512C76.719 64.7217 76.727 64.6922 76.729 64.6617C76.731 64.6313 76.726 64.6027 76.722 64.5713C76.718 64.5418 76.714 64.5123 76.704 64.4828C76.693 64.4533 76.676 64.4266 76.659 64.399C76.647 64.379 76.642 64.3571 76.628 64.339L75.43 62.8853L76.58 61.7848C76.597 61.7677 76.603 61.7477 76.617 61.7305C76.638 61.7048 76.659 61.6782 76.674 61.6487C76.688 61.622 76.695 61.5925 76.703 61.5639C76.711 61.5344 76.719 61.5059 76.721 61.4754C76.723 61.444 76.718 61.4154 76.714 61.384C76.709 61.3545 76.706 61.3259 76.696 61.2964C76.685 61.266 76.667 61.2384 76.649 61.2098C76.637 61.1898 76.633 61.1698 76.619 61.1517L74.836 58.9954C74.83 58.9878 74.82 58.984 74.815 58.9774C74.807 58.9697 74.805 58.9593 74.797 58.9526C74.787 58.9431 74.774 58.9393 74.763 58.9326C74.744 58.9164 74.727 58.9031 74.706 58.8907C74.689 58.8802 74.674 58.8717 74.656 58.865C74.635 58.8545 74.615 58.8488 74.593 58.8422C74.572 58.8365 74.553 58.8307 74.531 58.8269C74.511 58.8231 74.492 58.8212 74.472 58.8193C74.45 58.8184 74.427 58.8193 74.405 58.8212C74.384 58.8231 74.363 58.825 74.342 58.8288C74.322 58.8326 74.304 58.8384 74.285 58.8441C74.263 58.8517 74.242 58.8612 74.221 58.8707C74.209 58.8774 74.195 58.8774 74.183 58.885L72.792 59.6942L71.582 58.2158L73.009 57.4342C73.028 57.4237 73.039 57.4075 73.056 57.3951C73.083 57.3751 73.11 57.3561 73.132 57.3313C73.153 57.3075 73.17 57.2828 73.186 57.2552C73.202 57.2304 73.216 57.2047 73.227 57.1771C73.239 57.1448 73.243 57.1124 73.248 57.0781C73.25 57.0581 73.26 57.0419 73.26 57.0219V55.0456L75.058 54.0488C75.077 54.0384 75.087 54.0222 75.104 54.0098C75.131 53.9898 75.158 53.9708 75.18 53.946C75.201 53.9232 75.217 53.8975 75.233 53.8708C75.249 53.8451 75.263 53.8194 75.274 53.7909C75.285 53.7594 75.29 53.728 75.295 53.6947C75.297 53.6747 75.307 53.6576 75.307 53.6376V33.6189L77.102 32.6317C77.121 32.6212 77.131 32.605 77.148 32.5927C77.176 32.5727 77.203 32.5527 77.226 32.5279C77.247 32.5051 77.262 32.4803 77.278 32.4537C77.295 32.427 77.309 32.4013 77.32 32.3728C77.331 32.3413 77.336 32.3099 77.34 32.2766C77.343 32.2566 77.353 32.2395 77.353 32.2185V14.1753C77.353 14.1648 77.348 14.1562 77.347 14.1467C77.346 14.1267 77.343 14.1067 77.338 14.0867C77.334 14.0648 77.328 14.0439 77.32 14.022C77.312 14.0011 77.304 13.982 77.294 13.963C77.29 13.9544 77.29 13.9449 77.285 13.9373C77.28 13.9297 77.271 13.9249 77.266 13.9173C77.253 13.8992 77.241 13.883 77.225 13.8668C77.21 13.8497 77.195 13.8345 77.176 13.8202C77.159 13.8059 77.143 13.7935 77.124 13.7811C77.115 13.7754 77.11 13.7669 77.102 13.7621L60.683 4.73525C60.664 4.72477 60.643 4.72382 60.623 4.71621C60.591 4.70288 60.559 4.6905 60.524 4.68479C60.495 4.67908 60.466 4.67908 60.437 4.67908C60.402 4.67908 60.369 4.67908 60.333 4.68574C60.303 4.69145 60.274 4.70288 60.245 4.7143C60.224 4.72287 60.201 4.72382 60.182 4.73429L43.776 13.7621C43.766 13.7669 43.761 13.7764 43.753 13.7821C43.735 13.7935 43.72 13.805 43.703 13.8183C43.684 13.8335 43.669 13.8487 43.652 13.8659C43.637 13.8821 43.625 13.8982 43.612 13.9163C43.607 13.924 43.598 13.9287 43.593 13.9363C43.588 13.9439 43.588 13.9544 43.584 13.962C43.573 13.9811 43.565 14.0001 43.558 14.0211C43.55 14.042 43.544 14.0629 43.54 14.0858C43.536 14.1058 43.532 14.1258 43.531 14.1458C43.53 14.1553 43.525 14.1639 43.525 14.1743V32.2185C43.525 32.2385 43.535 32.2557 43.537 32.2747C43.542 32.309 43.546 32.3413 43.558 32.3737C43.569 32.4013 43.583 32.427 43.599 32.4527C43.615 32.4794 43.631 32.5051 43.653 32.5289C43.675 32.5536 43.702 32.5727 43.729 32.5927C43.746 32.605 43.757 32.6212 43.776 32.6317L47.628 34.7432V36.453L45.832 37.4393C45.823 37.4441 45.818 37.4526 45.811 37.4574C45.792 37.4688 45.776 37.4812 45.759 37.4955C45.74 37.5107 45.725 37.5259 45.709 37.5431C45.694 37.5593 45.681 37.5754 45.669 37.5926C45.663 37.6002 45.654 37.6049 45.649 37.6135C45.644 37.6221 45.644 37.6316 45.639 37.6402C45.629 37.6592 45.621 37.6783 45.614 37.6982C45.606 37.7192 45.601 37.7392 45.596 37.762C45.592 37.783 45.589 37.802 45.587 37.823C45.587 37.8325 45.581 37.841 45.581 37.8515V49.9638L44.364 50.6683L42.865 48.8452C42.858 48.8366 42.849 48.8338 42.843 48.8262C42.835 48.8186 42.833 48.8081 42.825 48.8014C42.815 48.7919 42.802 48.7881 42.791 48.7814C42.773 48.7662 42.756 48.7519 42.736 48.7405C42.718 48.73 42.702 48.7215 42.684 48.7138C42.663 48.7043 42.643 48.6977 42.622 48.691C42.601 48.6853 42.581 48.6796 42.56 48.6758C42.54 48.672 42.522 48.67 42.501 48.6681C42.48 48.6672 42.458 48.6681 42.437 48.67C42.415 48.671 42.392 48.6729 42.37 48.6777C42.351 48.6815 42.334 48.6872 42.314 48.6929C42.293 48.7005 42.272 48.71 42.251 48.7186C42.238 48.7253 42.225 48.7262 42.213 48.7329L40.811 49.5449L39.312 47.7228C39.305 47.7152 39.295 47.7114 39.289 47.7038C39.283 47.6962 39.28 47.6876 39.273 47.6809C39.263 47.6714 39.251 47.6676 39.24 47.66C39.221 47.6447 39.204 47.6305 39.184 47.619C39.166 47.6086 39.15 47.599 39.131 47.5914C39.11 47.5819 39.09 47.5752 39.069 47.5695C39.048 47.5638 39.029 47.5572 39.007 47.5534C38.987 47.5505 38.968 47.5476 38.947 47.5467C38.925 47.5457 38.902 47.5467 38.88 47.5476C38.859 47.5486 38.839 47.5505 38.818 47.5553C38.798 47.5591 38.781 47.5638 38.761 47.5695C38.738 47.5772 38.717 47.5876 38.695 47.5971C38.683 47.6029 38.67 47.6029 38.658 47.6105L37.257 48.4216L35.758 46.5899C35.751 46.5814 35.741 46.5776 35.735 46.5699C35.727 46.5623 35.725 46.5528 35.717 46.5452C35.707 46.5357 35.694 46.5328 35.684 46.5242C35.665 46.51 35.649 46.4957 35.629 46.4843C35.611 46.4738 35.594 46.4643 35.575 46.4557C35.554 46.4471 35.535 46.4405 35.513 46.4338C35.492 46.4281 35.474 46.4214 35.452 46.4176C35.431 46.4138 35.412 46.4119 35.391 46.411C35.369 46.41 35.348 46.411 35.327 46.4119C35.305 46.4129 35.283 46.4148 35.261 46.4195C35.242 46.4233 35.224 46.4281 35.205 46.4348C35.183 46.4414 35.162 46.4509 35.141 46.4614C35.128 46.4671 35.115 46.4671 35.103 46.4747L33.701 47.2868L32.202 45.4637C32.195 45.4561 32.186 45.4523 32.18 45.4447C32.172 45.4371 32.17 45.4275 32.162 45.4199C32.152 45.4104 32.139 45.4075 32.129 45.399C32.11 45.3837 32.093 45.3695 32.072 45.358C32.055 45.3476 32.039 45.339 32.021 45.3314C32 45.3219 31.981 45.3152 31.959 45.3085C31.937 45.3019 31.917 45.2962 31.895 45.2924C31.875 45.2895 31.857 45.2876 31.837 45.2866C31.816 45.2857 31.795 45.2866 31.773 45.2876C31.751 45.2885 31.728 45.2904 31.706 45.2952C31.687 45.299 31.67 45.3038 31.651 45.3104C31.629 45.3171 31.608 45.3266 31.587 45.3371C31.574 45.3428 31.561 45.3438 31.549 45.3504L30.148 46.1615L28.649 44.3299C28.642 44.3223 28.632 44.3185 28.626 44.3108C28.618 44.3023 28.615 44.2918 28.607 44.2842C28.597 44.2747 28.585 44.2718 28.574 44.2642C28.555 44.249 28.538 44.2347 28.518 44.2233C28.501 44.2128 28.485 44.2052 28.466 44.1976C28.445 44.188 28.425 44.1804 28.404 44.1747C28.384 44.169 28.366 44.1633 28.345 44.1595C28.324 44.1557 28.303 44.1538 28.282 44.1528C28.26 44.1519 28.237 44.1528 28.215 44.1547C28.195 44.1557 28.177 44.1576 28.157 44.1614C28.136 44.1652 28.116 44.1709 28.095 44.1776C28.073 44.1842 28.052 44.1947 28.032 44.2042C28.019 44.2099 28.005 44.2099 27.993 44.2175L26.211 45.259C26.193 45.2695 26.183 45.2857 26.167 45.2981C26.151 45.3095 26.133 45.3152 26.119 45.3285L24.675 46.7032C24.665 46.7127 24.661 46.7251 24.653 46.7346C24.638 46.7518 24.624 46.768 24.611 46.786C24.6 46.8032 24.59 46.8194 24.582 46.8365C24.572 46.8555 24.565 46.8746 24.559 46.8955C24.553 46.9146 24.547 46.9336 24.543 46.9536C24.539 46.9736 24.536 46.9926 24.535 47.0126C24.533 47.0336 24.535 47.0536 24.536 47.0745C24.538 47.0945 24.54 47.1135 24.544 47.1335C24.548 47.1535 24.553 47.1716 24.561 47.1916C24.568 47.2125 24.579 47.2316 24.588 47.2516C24.595 47.263 24.595 47.2754 24.602 47.2868C24.606 47.2935 24.615 47.2963 24.619 47.302C24.626 47.3125 24.628 47.3239 24.636 47.3334L25.832 48.7929L24.676 49.9019C24.663 49.9076 24.66 49.92 24.651 49.9295ZM55.831 90.0287L52.729 88.3275V69.7968L53.341 69.4455L54.83 71.2772C54.859 71.3134 54.899 71.3334 54.936 71.3591C54.957 71.3743 54.973 71.3943 54.997 71.4067C55.068 71.4409 55.146 71.4619 55.226 71.4619C55.316 71.4619 55.406 71.44 55.488 71.3914L55.831 71.1915V90.0287V90.0287ZM59.933 84.0844V88.3275L56.831 90.0287V70.6079L58.661 69.5503L59.932 71.0973V84.0844H59.933ZM64.056 85.522L60.933 83.8093V71.4171L64.056 69.6131V85.522ZM68.146 83.8093L65.055 85.5172V69.0333L65.771 68.6154L67.268 70.4366C67.296 70.4708 67.335 70.4908 67.372 70.5156C67.393 70.5308 67.41 70.5508 67.434 70.5632C67.505 70.5984 67.582 70.6203 67.663 70.6203C67.751 70.6203 67.84 70.5984 67.92 70.5518L68.148 70.4213V83.8093H68.146ZM75.56 64.597L74.818 65.3024L73.74 63.9906L74.632 63.4698L75.56 64.597ZM74.399 60.0074L75.559 61.4097L74.818 62.1151L73.666 60.7071L74.399 60.0074ZM72.88 61.2945L74.032 62.7035L72.739 63.4575C72.73 63.4622 72.726 63.4708 72.718 63.4756C72.709 63.4813 72.699 63.4832 72.691 63.4889C72.671 63.5041 72.661 63.5251 72.644 63.5422C72.621 63.565 72.598 63.586 72.581 63.6126C72.564 63.6374 72.554 63.666 72.542 63.6936C72.53 63.7231 72.519 63.7516 72.513 63.7811C72.507 63.8107 72.508 63.8392 72.509 63.8687C72.509 63.9001 72.509 63.9297 72.516 63.963C72.522 63.9915 72.536 64.0182 72.547 64.0458C72.557 64.0677 72.56 64.0925 72.573 64.1134C72.578 64.121 72.587 64.1239 72.592 64.1305C72.598 64.1391 72.6 64.1505 72.607 64.1581L74.033 65.8917L68.387 69.1752C68.386 69.1752 68.386 69.1752 68.386 69.1752L67.784 69.5189L66.285 67.6939C66.27 67.6758 66.25 67.6672 66.234 67.652C66.208 67.6282 66.183 67.6044 66.153 67.5872C66.128 67.572 66.101 67.5634 66.075 67.5539C66.042 67.5406 66.012 67.5301 65.977 67.5244C65.946 67.5187 65.916 67.5197 65.885 67.5206C65.853 67.5206 65.822 67.5206 65.789 67.5263C65.756 67.5339 65.726 67.5463 65.693 67.5596C65.672 67.5692 65.649 67.5711 65.629 67.5815L64.297 68.3603C64.297 68.3612 64.296 68.3612 64.296 68.3612L60.673 70.4537L59.175 68.6306C59.16 68.6125 59.14 68.604 59.123 68.5887C59.098 68.5659 59.074 68.5421 59.046 68.5259C59.018 68.5097 58.988 68.4993 58.959 68.4888C58.93 68.4774 58.901 68.4669 58.87 68.4612C58.837 68.4555 58.805 68.4564 58.771 68.4574C58.741 68.4574 58.711 68.4574 58.682 68.4631C58.648 68.4697 58.617 68.4831 58.585 68.4964C58.564 68.505 58.541 68.5059 58.521 68.5173L56.071 69.933C56.07 69.933 56.07 69.9339 56.07 69.9339C56.069 69.9349 56.069 69.9349 56.069 69.9349L55.347 70.3566L53.86 68.5278C53.844 68.5078 53.822 68.4974 53.803 68.4802C53.781 68.4602 53.759 68.4393 53.734 68.4241C53.703 68.4041 53.67 68.3926 53.635 68.3793C53.61 68.3707 53.585 68.3603 53.559 68.3565C53.523 68.3498 53.489 68.3498 53.453 68.3517C53.424 68.3517 53.396 68.3517 53.368 68.3565C53.334 68.3631 53.303 68.3764 53.27 68.3898C53.249 68.3983 53.226 68.4003 53.207 68.4107L51.972 69.119C51.971 69.119 51.971 69.1209 51.97 69.1209C51.969 69.1219 51.967 69.1219 51.966 69.1228L51.8 69.2218L50.449 67.5787L52.164 66.6276C52.183 66.6172 52.193 66.601 52.21 66.5886C52.237 66.5686 52.264 66.5486 52.286 66.5248C52.307 66.501 52.323 66.4763 52.339 66.4506C52.355 66.4249 52.369 66.3982 52.38 66.3687C52.391 66.3382 52.396 66.3068 52.401 66.2735C52.403 66.2535 52.413 66.2364 52.413 66.2154V63.6031L53.343 63.0719L54.833 64.895C54.839 64.9026 54.849 64.9055 54.855 64.9121C54.862 64.9207 54.865 64.9312 54.873 64.9378C54.896 64.9597 54.925 64.9702 54.951 64.9873C54.969 64.9988 54.981 65.014 55 65.0235C55.009 65.0283 55.017 65.0321 55.025 65.0359C55.089 65.0625 55.158 65.0787 55.227 65.0787C55.307 65.0787 55.384 65.0549 55.457 65.0178C55.467 65.013 55.478 65.0159 55.487 65.0102L60.434 62.137L61.943 63.9611C61.948 63.9668 61.957 63.9687 61.962 63.9753C61.97 63.9839 61.972 63.9934 61.98 64.0001C62.004 64.023 62.035 64.0344 62.062 64.0525C62.079 64.0639 62.091 64.0782 62.109 64.0858C62.118 64.0905 62.126 64.0953 62.134 64.0991C62.198 64.1258 62.267 64.142 62.336 64.142C62.416 64.142 62.493 64.1181 62.565 64.081C62.575 64.0772 62.586 64.0791 62.595 64.0734L66.15 62.0123C66.159 62.0076 66.163 61.9981 66.171 61.9933C66.181 61.9866 66.192 61.9838 66.202 61.9762C66.221 61.9619 66.229 61.9428 66.245 61.9267C66.268 61.9038 66.292 61.881 66.309 61.8543C66.326 61.8286 66.337 61.8 66.349 61.7705C66.36 61.7429 66.37 61.7163 66.376 61.6867C66.382 61.6563 66.381 61.6258 66.38 61.5934C66.38 61.5649 66.379 61.5354 66.373 61.5068C66.365 61.4745 66.352 61.4459 66.338 61.4145C66.329 61.3945 66.327 61.3745 66.316 61.3554C66.31 61.3469 66.301 61.3412 66.295 61.3345C66.288 61.325 66.286 61.3145 66.279 61.3069L65.98 60.9509L65.851 60.7719C65.848 60.7671 65.843 60.7652 65.84 60.7614C65.836 60.7557 65.835 60.75 65.831 60.7452L64.857 59.5733L65.768 59.043L67.265 60.8652C67.271 60.8728 67.28 60.8747 67.286 60.8823C67.292 60.8899 67.296 60.9013 67.305 60.908C67.328 60.9299 67.357 60.9413 67.383 60.9585C67.4 60.9699 67.412 60.9832 67.431 60.9918C67.44 60.9965 67.448 61.0013 67.457 61.0051C67.521 61.0318 67.589 61.048 67.658 61.048C67.738 61.048 67.815 61.0241 67.887 60.987C67.897 60.9832 67.908 60.9851 67.917 60.9794L69.322 60.1664L70.83 61.9904C70.836 61.998 70.845 62 70.851 62.0066C70.859 62.0152 70.861 62.0257 70.87 62.0333C70.892 62.0542 70.922 62.0647 70.948 62.0818C70.965 62.0932 70.978 62.1075 70.997 62.117C71.006 62.1209 71.014 62.1256 71.022 62.1294C71.086 62.1561 71.154 62.1732 71.223 62.1732C71.303 62.1732 71.38 62.1475 71.453 62.1113C71.463 62.1066 71.474 62.1085 71.483 62.1028L72.88 61.2945ZM55.831 41.511V42.6677L54.785 42.0879V40.937L55.831 41.511ZM54.785 39.8383V38.6779L55.831 39.2529V40.4134L54.785 39.8383ZM55.831 43.7711V44.9211L54.785 44.3461V43.1903L55.831 43.7711ZM55.831 46.0206V47.1764L54.785 46.5966V45.4456L55.831 46.0206ZM55.831 48.2788V49.4297L54.785 48.8547V47.699L55.831 48.2788ZM56.081 50.6673C56.082 50.6683 56.082 50.6673 56.083 50.6683C56.09 50.6721 56.1 50.6712 56.107 50.675C56.174 50.7073 56.249 50.7321 56.331 50.7321C56.413 50.7321 56.486 50.7092 56.555 50.675C56.563 50.6721 56.572 50.6721 56.579 50.6683H56.58L57.887 49.9524V53.6395C57.887 53.649 57.892 53.6566 57.893 53.6652C57.895 53.6985 57.904 53.728 57.914 53.7623C57.922 53.7918 57.93 53.8213 57.944 53.8499C57.949 53.8584 57.949 53.8689 57.954 53.8765C57.962 53.8889 57.975 53.8937 57.983 53.9041C58.018 53.9527 58.06 53.9927 58.111 54.025C58.13 54.0374 58.144 54.0488 58.164 54.0584C58.231 54.0907 58.306 54.1155 58.388 54.1155C58.471 54.1155 58.545 54.0917 58.615 54.0574C58.623 54.0536 58.631 54.0555 58.638 54.0508L62.74 51.8012C62.759 51.7907 62.77 51.7745 62.787 51.7621C62.814 51.7422 62.841 51.7231 62.863 51.6984C62.884 51.6746 62.901 51.6498 62.917 51.6222C62.933 51.5974 62.947 51.5717 62.957 51.5441C62.97 51.5118 62.974 51.4794 62.978 51.4451C62.98 51.4251 62.99 51.409 62.99 51.389V49.405L64.057 48.8252V52.2391L60.277 54.3106C60.275 54.3106 60.272 54.3126 60.269 54.3116C60.249 54.3106 60.231 54.3145 60.211 54.3154C60.19 54.3164 60.168 54.3202 60.146 54.324C60.125 54.3287 60.103 54.3316 60.082 54.3392C60.063 54.3459 60.047 54.3563 60.029 54.363C60.016 54.3697 60.003 54.3697 59.99 54.3763L58.587 55.1798L57.087 53.3567C57.08 53.3482 57.07 53.3453 57.064 53.3377C57.058 53.3301 57.055 53.3215 57.048 53.3149C57.038 53.3053 57.026 53.3015 57.015 53.2939C56.996 53.2787 56.979 53.2644 56.957 53.252C56.94 53.2416 56.924 53.233 56.906 53.2254C56.885 53.2158 56.866 53.2092 56.844 53.2035C56.823 53.1968 56.803 53.1911 56.781 53.1873C56.761 53.1835 56.743 53.1816 56.723 53.1797C56.701 53.1787 56.679 53.1797 56.657 53.1816C56.636 53.1835 56.614 53.1854 56.592 53.1892C56.573 53.193 56.556 53.1978 56.537 53.2035C56.514 53.2111 56.493 53.2216 56.472 53.2311C56.459 53.2368 56.446 53.2377 56.434 53.2444L55.029 54.0574L54.788 53.7661V49.9562L56.081 50.6673ZM70.454 41.9489C70.435 41.9594 70.425 41.9756 70.408 41.988C70.38 42.008 70.352 42.0279 70.33 42.0536C70.309 42.0765 70.294 42.1003 70.278 42.127C70.261 42.1536 70.246 42.1793 70.235 42.2088C70.224 42.2402 70.219 42.2707 70.215 42.304C70.212 42.324 70.202 42.3412 70.202 42.3621V46.5966L67.1 48.3045V47.1449L68.895 46.1577C68.914 46.1472 68.924 46.1311 68.941 46.1187C68.969 46.0987 68.996 46.0787 69.019 46.054C69.04 46.0311 69.055 46.0064 69.071 45.9797C69.088 45.953 69.102 45.9273 69.113 45.8988C69.124 45.8674 69.129 45.8359 69.133 45.8026C69.136 45.7826 69.146 45.7655 69.146 45.7446V43.4969C69.146 43.4864 69.141 43.4778 69.14 43.4683C69.138 43.4369 69.129 43.4083 69.12 43.3769C69.111 43.3446 69.102 43.3141 69.087 43.2846C69.083 43.276 69.083 43.2665 69.078 43.2589C69.067 43.2417 69.051 43.2313 69.038 43.216C69.017 43.1894 68.997 43.1637 68.971 43.1418C68.946 43.1208 68.918 43.1056 68.89 43.0904C68.864 43.0751 68.838 43.0618 68.809 43.0523C68.775 43.0409 68.741 43.0361 68.705 43.0323C68.684 43.0304 68.667 43.0209 68.646 43.0209C68.636 43.0209 68.627 43.0256 68.618 43.0266C68.584 43.0285 68.552 43.0371 68.518 43.0456C68.486 43.0542 68.454 43.0618 68.424 43.0751C68.415 43.0799 68.404 43.079 68.396 43.0847L66.351 44.209C66.332 44.2194 66.322 44.2356 66.305 44.248C66.277 44.268 66.25 44.288 66.228 44.3127C66.207 44.3356 66.191 44.3603 66.175 44.387C66.158 44.4137 66.144 44.4384 66.133 44.4679C66.122 44.4993 66.117 44.5308 66.112 44.5641C66.11 44.5841 66.1 44.6012 66.1 44.6221V46.5985L64.302 47.5952C64.302 47.5952 64.301 47.5952 64.301 47.5962L62.987 48.3111V46.8727C62.987 46.8632 62.982 46.8546 62.981 46.8441C62.979 46.8127 62.97 46.7832 62.961 46.7508C62.952 46.7184 62.943 46.6889 62.929 46.6604C62.924 46.6518 62.924 46.6413 62.919 46.6337C62.908 46.6166 62.892 46.6071 62.88 46.5918C62.858 46.5642 62.836 46.5385 62.809 46.5157C62.786 46.4957 62.76 46.4814 62.734 46.4671C62.706 46.4509 62.678 46.4367 62.646 46.4271C62.614 46.4167 62.581 46.4119 62.547 46.4081C62.526 46.4052 62.508 46.3967 62.486 46.3967C62.475 46.3967 62.466 46.4014 62.456 46.4024C62.422 46.4043 62.391 46.4129 62.357 46.4214C62.325 46.43 62.294 46.4376 62.264 46.4519C62.254 46.4557 62.243 46.4557 62.235 46.4614L60.179 47.5952C60.16 47.6057 60.15 47.6219 60.133 47.6343C60.105 47.6543 60.078 47.6743 60.056 47.699C60.035 47.7219 60.02 47.7466 60.004 47.7723C59.987 47.799 59.973 47.8247 59.962 47.8542C59.951 47.8856 59.946 47.917 59.942 47.9494C59.939 47.9694 59.929 47.9865 59.929 48.0075V50.258C59.929 50.2675 59.934 50.2761 59.935 50.2846C59.937 50.3161 59.946 50.3465 59.955 50.3779C59.964 50.4094 59.972 50.4398 59.987 50.4684C59.991 50.4769 59.991 50.4874 59.996 50.4941C60.003 50.5065 60.017 50.5112 60.024 50.5217C60.059 50.5702 60.102 50.6112 60.154 50.6445C60.172 50.6559 60.186 50.6673 60.206 50.6769C60.273 50.7092 60.348 50.734 60.43 50.734C60.513 50.734 60.587 50.7102 60.656 50.6759C60.664 50.6721 60.673 50.674 60.679 50.6702L61.986 49.9543V51.1167L58.884 52.8179V49.1327C58.884 49.1222 58.879 49.1137 58.878 49.1051C58.876 49.0737 58.867 49.0442 58.858 49.0118C58.849 48.9794 58.841 48.9509 58.827 48.9214C58.822 48.9128 58.822 48.9033 58.817 48.8947C58.806 48.8776 58.789 48.8671 58.777 48.8519C58.756 48.8243 58.734 48.7986 58.708 48.7767C58.684 48.7567 58.657 48.7424 58.63 48.7272C58.603 48.711 58.575 48.6977 58.545 48.6872C58.512 48.6758 58.478 48.671 58.442 48.6672C58.422 48.6643 58.404 48.6558 58.383 48.6558C58.373 48.6558 58.364 48.6605 58.355 48.6615C58.32 48.6634 58.288 48.672 58.254 48.6805C58.222 48.6891 58.191 48.6967 58.162 48.71C58.152 48.7138 58.142 48.7138 58.134 48.7196L56.827 49.4336V48.0065V45.7474V43.4969V41.2368V39.8031L60.179 41.649H60.18C60.188 41.6529 60.198 41.6529 60.205 41.6567C60.273 41.69 60.347 41.7128 60.429 41.7128C60.511 41.7128 60.584 41.69 60.653 41.6567C60.661 41.6529 60.67 41.6538 60.676 41.65C60.677 41.65 60.678 41.65 60.679 41.65L72.255 35.2935V36.7291V38.9777V40.9608L70.454 41.9489ZM71.203 52.2115L71.756 52.5142L71.203 52.8151V52.2115ZM60.601 57.6084L59.45 56.2004L60.2 55.4978L61.177 56.6916C61.177 56.6916 61.178 56.6916 61.178 56.6926C61.179 56.6935 61.179 56.6935 61.179 56.6935L61.351 56.902L60.601 57.6084ZM62.218 57.9197L63.377 59.321L62.457 59.8532L61.461 58.6365C61.46 58.6356 61.459 58.6346 61.458 58.6337C61.456 58.6327 61.456 58.6308 61.455 58.6289L61.302 58.449L62.218 57.9197ZM59.812 58.1948L58.901 58.7194L57.748 57.3171L58.661 56.7858L59.812 58.1948ZM57.053 56.4736L55.895 55.0722L56.645 54.364L57.797 55.7653L57.053 56.4736ZM58.388 59.638C58.416 59.6733 58.455 59.6923 58.491 59.7171C58.513 59.7332 58.53 59.7532 58.554 59.7647L58.386 59.858L56.58 58.8707C56.562 58.8612 56.544 58.8603 56.526 58.8526C56.491 58.8384 56.458 58.826 56.422 58.8203C56.394 58.8146 56.366 58.8146 56.338 58.8146C56.303 58.8136 56.269 58.8146 56.234 58.8212C56.203 58.8279 56.174 58.8393 56.144 58.8498C56.123 58.8584 56.101 58.8593 56.082 58.8698L54.786 59.5819V58.4547L54.831 58.5109C54.86 58.5461 54.899 58.567 54.936 58.5918C54.957 58.608 54.974 58.628 54.998 58.6413C55.069 58.6756 55.147 58.6975 55.227 58.6975C55.316 58.6975 55.406 58.6756 55.487 58.628L56.889 57.8159L58.388 59.638ZM54.854 61.7905L55.821 63.3699L55.275 63.8859L54.129 62.4845L54.854 61.7905ZM55.285 60.4073L56.332 59.8313L57.383 60.4073L56.332 60.9823L55.285 60.4073ZM56.831 61.8067L58.633 60.8214C58.634 60.8214 58.634 60.8214 58.634 60.8204H58.636C58.636 60.8204 58.636 60.8195 58.637 60.8195C58.637 60.8185 58.638 60.8195 58.638 60.8185L60.941 59.5486L61.298 59.9855L56.831 62.5797V61.8067V61.8067ZM61.972 60.8404L63.133 62.2494L62.383 62.952L61.222 61.5478L61.972 60.8404ZM63.06 60.6176L64 60.0741L64.69 60.9061L64.304 61.1203L63.73 61.4345L63.06 60.6176ZM64.161 58.7317L63.004 57.3313L63.754 56.6231L64.269 57.2495C64.27 57.2495 64.27 57.2495 64.27 57.2504L64.899 58.0244L64.161 58.7317ZM64.791 56.3413L64.194 55.6149C64.187 55.6063 64.178 55.6035 64.172 55.5968C64.165 55.5892 64.163 55.5787 64.155 55.573C64.146 55.5644 64.135 55.5616 64.127 55.554L64.555 55.3217L65.601 55.8967L64.791 56.3413ZM64.806 54.3611C64.787 54.3516 64.767 54.3497 64.748 54.3421C64.715 54.3287 64.683 54.3173 64.647 54.3106C64.619 54.3049 64.591 54.3049 64.563 54.3049C64.527 54.304 64.493 54.3049 64.458 54.3126C64.428 54.3183 64.399 54.3297 64.37 54.3402C64.349 54.3478 64.327 54.3487 64.308 54.3602L61.699 55.7805L61.05 54.9856L64.556 53.0626L66.351 54.0498L67.652 54.7714L66.603 55.3474L64.806 54.3611ZM66.102 49.405V52.8141L65.056 52.2391V48.829L66.102 49.405ZM65.553 48.0036L66.102 47.699V48.3045L65.553 48.0036ZM67.102 53.3653V49.9552L70.204 51.6631V53.3644L68.648 54.2221L67.102 53.3653ZM67.6 49.1299L70.204 47.6952V50.5636L67.6 49.1299ZM67.102 46.0454V44.8954L68.147 44.3213V45.4713L67.102 46.0454ZM61.988 47.6971V48.8547L60.932 49.4316V48.2788L61.988 47.6971ZM55.109 55.6606L56.267 57.0619L55.349 57.5931L55.294 57.5246C55.293 57.5246 55.292 57.5246 55.292 57.5227C55.291 57.5227 55.291 57.5208 55.29 57.5198L54.677 56.7811C54.677 56.7811 54.676 56.7811 54.676 56.7801L54.2 56.1918L55.109 55.6606ZM53.507 55.3493L52.774 54.4687L53.861 54.184L53.886 54.2154C53.887 54.2174 53.889 54.2174 53.891 54.2193C53.892 54.2212 53.892 54.2231 53.894 54.225L54.243 54.6438L53.507 55.3493ZM53.785 40.1125V42.3611V44.6202V46.8698V49.1299V53.2158L51.779 53.7414C51.717 53.7585 51.656 53.7861 51.601 53.827C51.577 53.8461 51.562 53.8718 51.542 53.8937C51.528 53.908 51.517 53.9184 51.505 53.9346C51.451 54.0089 51.421 54.0936 51.417 54.1821C51.417 54.1897 51.411 54.1936 51.411 54.2012V56.9496C51.411 56.961 51.417 56.9696 51.418 56.981C51.42 57.0124 51.429 57.0419 51.438 57.0743C51.447 57.1067 51.457 57.1362 51.472 57.1657C51.477 57.1752 51.477 57.1857 51.483 57.1952C51.49 57.2066 51.504 57.2104 51.511 57.2209C51.546 57.2676 51.588 57.3066 51.638 57.338C51.657 57.3494 51.671 57.3618 51.69 57.3713C51.757 57.4027 51.831 57.4256 51.912 57.4256C51.997 57.4256 52.073 57.4018 52.142 57.3666C52.151 57.3618 52.161 57.3637 52.168 57.359L53.34 56.6916L53.784 57.238V58.1472V60.4082V61.165C53.603 61.2764 53.527 61.4792 53.573 61.6687L53.155 62.0694L51.654 62.9243C51.636 62.9348 51.626 62.9501 51.61 62.9624C51.583 62.9824 51.557 63.0024 51.535 63.0272C51.514 63.05 51.498 63.0757 51.482 63.1014C51.466 63.1271 51.453 63.1538 51.443 63.1814C51.431 63.2138 51.426 63.2452 51.422 63.2794C51.419 63.2985 51.41 63.3137 51.41 63.3328V65.9431L50.681 66.3468V40.3867L53.783 38.6779V40.1125H53.785ZM52.719 55.9348L52.412 56.1099V55.5673L52.719 55.9348ZM66.556 58.4547L67.29 57.7502L68.447 59.1525L67.708 59.857L66.556 58.4547ZM72.006 60.2835L71.273 60.9813L70.113 59.579L70.853 58.8745L72.006 60.2835ZM72.259 54.7733V56.7478L69.145 58.4547L67.728 56.7392C67.721 56.7306 67.711 56.7278 67.704 56.7192C67.697 56.7116 67.695 56.7021 67.687 56.6954C67.677 56.6849 67.664 56.6821 67.653 56.6745C67.635 56.6592 67.618 56.6469 67.598 56.6354C67.581 56.624 67.565 56.6154 67.546 56.6078C67.525 56.5983 67.504 56.5907 67.483 56.5859C67.462 56.5802 67.444 56.5745 67.423 56.5707C67.402 56.5669 67.382 56.565 67.361 56.5631C67.339 56.5621 67.317 56.5631 67.295 56.565C67.274 56.5669 67.255 56.5688 67.234 56.5726C67.213 56.5764 67.193 56.5821 67.172 56.5888C67.151 56.5955 67.131 56.605 67.11 56.6145C67.098 56.6212 67.084 56.6212 67.072 56.6288L65.682 57.437L65.41 57.101L66.847 56.3137L66.851 56.3118L68.896 55.1865C68.896 55.1865 68.896 55.1865 68.896 55.1855C68.897 55.1855 68.897 55.1855 68.897 55.1855L70.954 54.0517C70.954 54.0517 70.954 54.0517 70.955 54.0517L72.259 53.3377V54.7733V54.7733ZM74.305 53.3653L73.259 53.9441V52.5142C73.259 52.5038 73.254 52.4952 73.253 52.4866C73.252 52.4657 73.248 52.4457 73.244 52.4247C73.239 52.4028 73.234 52.3819 73.226 52.361C73.218 52.341 73.211 52.3229 73.201 52.3038C73.197 52.2953 73.197 52.2857 73.192 52.2772C73.186 52.2686 73.177 52.2638 73.171 52.2553C73.159 52.2381 73.146 52.2229 73.131 52.2067C73.115 52.1886 73.1 52.1734 73.081 52.1582C73.064 52.1448 73.049 52.1334 73.03 52.122C73.021 52.1163 73.016 52.1068 73.007 52.102L71.202 51.1138V46.8708V42.6372L73.007 41.649C73.026 41.6386 73.036 41.6224 73.053 41.61C73.081 41.59 73.109 41.57 73.131 41.5443C73.152 41.5215 73.167 41.4967 73.183 41.471C73.2 41.4444 73.215 41.4187 73.226 41.3892C73.237 41.3577 73.242 41.3273 73.246 41.294C73.249 41.274 73.259 41.2559 73.259 41.2359V38.9768V36.7282V34.7432L74.305 34.1682V53.3653V53.3653ZM76.35 31.9453L74.555 32.9325L72.509 34.0568L60.933 40.4124V23.4678L76.35 14.9997V31.9453ZM60.433 5.69677L75.85 14.1753L60.433 22.6433L45.026 14.1753L60.433 5.69677ZM44.526 31.9444V14.9997L59.932 23.4668V40.4114L56.582 38.5665C56.581 38.5665 56.581 38.5655 56.58 38.5655L54.534 37.4403C54.534 37.4403 54.533 37.4403 54.532 37.4403L54.441 37.3898L50.432 35.1821C50.432 35.1821 50.432 35.1812 50.431 35.1812L48.405 34.0721L48.377 34.0559L44.526 31.9444ZM49.181 35.5972L48.628 35.9028V35.2935L49.181 35.5972ZM48.378 37.1413C48.379 37.1404 48.379 37.1404 48.378 37.1413L50.18 36.1465L53.286 37.8534L50.183 39.5632L47.08 37.8534L48.378 37.1413ZM46.582 60.3444V59.8037V53.9613V53.4719V50.337V38.6779L49.684 40.3867V66.3496L46.582 64.6408V60.3444ZM45.582 51.3614V52.0982L45.241 51.686L45.582 51.3614ZM44.455 52.2762L45.582 53.6366V53.6947L44.692 54.2107L43.54 52.8084L44.455 52.2762ZM38.184 52.7275L39.126 52.1829L39.976 53.2158L39.038 53.7613L38.184 52.7275ZM38.25 54.3506L37.51 55.057L34.651 51.5813L35.541 51.0681L38.25 54.3506ZM40.646 54.0746L45.36 59.7961L44.619 60.5025L39.911 54.779L40.646 54.0746ZM41.735 53.8527L42.68 53.3063L44.179 55.1294C44.208 55.1646 44.247 55.1846 44.283 55.2093C44.304 55.2246 44.321 55.2446 44.345 55.2569C44.416 55.2912 44.493 55.3131 44.573 55.3131C44.662 55.3131 44.752 55.2912 44.833 55.2436L45.582 54.8095V58.5223L41.735 53.8527ZM42.427 49.8572L43.58 51.2585L42.844 51.964L41.686 50.5626L42.427 49.8572ZM40.9 51.151L42.058 52.5523L41.138 53.0854L39.986 51.6841L40.9 51.151ZM38.871 48.731L40.025 50.1352L39.29 50.8397L38.132 49.4307L38.871 48.731ZM37.345 50.0171L38.505 51.427L37.585 51.9602L36.431 50.5493L37.345 50.0171ZM35.316 47.5981L36.469 49.0071L35.736 49.7049L34.576 48.3016L35.316 47.5981ZM31.763 46.4728L32.916 47.8742L32.18 48.5796L31.022 47.1783L31.763 46.4728ZM28.208 45.34L29.36 46.748L28.626 47.4467L27.467 46.052L28.208 45.34ZM27.061 49.6078C27.072 49.6021 27.078 49.5906 27.088 49.5849C27.093 49.5811 27.101 49.5821 27.106 49.5783C27.126 49.564 27.135 49.5449 27.152 49.5278C27.176 49.504 27.201 49.4821 27.218 49.4554C27.236 49.4297 27.246 49.4012 27.258 49.3726C27.27 49.3441 27.281 49.3174 27.287 49.2879C27.293 49.2574 27.292 49.2279 27.291 49.1956C27.291 49.166 27.291 49.1365 27.285 49.107C27.278 49.0756 27.264 49.048 27.251 49.0175C27.242 48.9975 27.239 48.9728 27.227 48.9528C27.222 48.9452 27.213 48.9414 27.207 48.9338C27.202 48.9261 27.201 48.9166 27.195 48.91L26.899 48.5453C26.898 48.5453 26.898 48.5444 26.898 48.5434L25.768 47.1659L26.68 46.6404L28.189 48.4558C28.195 48.4635 28.205 48.4663 28.21 48.472C28.217 48.4806 28.22 48.4911 28.228 48.4977C28.251 48.5187 28.28 48.5292 28.306 48.5463C28.323 48.5577 28.335 48.572 28.354 48.5815C28.363 48.5853 28.372 48.5901 28.38 48.5948C28.444 48.6205 28.512 48.6377 28.581 48.6377C28.661 48.6377 28.738 48.6129 28.81 48.5768C28.82 48.572 28.831 48.5739 28.839 48.5691L30.234 47.7666L31.743 49.5916C31.749 49.5982 31.758 49.6002 31.764 49.6078C31.772 49.6163 31.775 49.6278 31.784 49.6354C31.807 49.6573 31.837 49.6677 31.863 49.6849C31.88 49.6954 31.892 49.7096 31.91 49.7182C31.919 49.723 31.927 49.7268 31.935 49.7306C31.999 49.7572 32.068 49.7734 32.136 49.7734C32.217 49.7734 32.294 49.7496 32.366 49.7125C32.376 49.7077 32.387 49.7106 32.396 49.7049L33.79 48.8938L34.949 50.2961L33.648 51.0472C33.639 51.052 33.634 51.0615 33.626 51.0672C33.618 51.0729 33.607 51.0738 33.6 51.0796C33.581 51.0948 33.572 51.1138 33.555 51.13C33.532 51.1538 33.508 51.1757 33.491 51.2024C33.473 51.2281 33.463 51.2566 33.451 51.2842C33.439 51.3128 33.428 51.3404 33.422 51.3699C33.417 51.3994 33.418 51.4289 33.418 51.4594C33.418 51.4908 33.418 51.5203 33.425 51.5518C33.431 51.5813 33.445 51.6089 33.457 51.6374C33.467 51.6584 33.469 51.6822 33.481 51.7022C33.486 51.7098 33.495 51.7126 33.5 51.7203C33.507 51.7298 33.508 51.7402 33.516 51.7488L37.071 56.0699C37.077 56.0766 37.086 56.0795 37.092 56.0861C37.1 56.0957 37.102 56.1061 37.111 56.1137C37.134 56.1347 37.163 56.1452 37.189 56.1623C37.206 56.1737 37.218 56.188 37.237 56.1975C37.246 56.2013 37.254 56.2051 37.263 56.2099C37.326 56.2365 37.395 56.2537 37.464 56.2537C37.544 56.2537 37.621 56.2289 37.693 56.1928C37.703 56.187 37.714 56.1899 37.723 56.1842L39.125 55.3721L44.179 61.5154C44.185 61.523 44.194 61.5249 44.2 61.5325C44.208 61.5401 44.21 61.5516 44.219 61.5582C44.242 61.5801 44.272 61.5915 44.298 61.6087C44.315 61.6201 44.327 61.6334 44.345 61.642C44.354 61.6468 44.362 61.6515 44.371 61.6553C44.434 61.682 44.503 61.6982 44.572 61.6982C44.652 61.6982 44.729 61.6744 44.801 61.6372C44.811 61.6334 44.822 61.6353 44.831 61.6296L45.58 61.1955V64.9188C45.58 64.9388 45.59 64.9578 45.593 64.9778C45.597 65.0102 45.602 65.0416 45.613 65.0721C45.624 65.1025 45.639 65.1292 45.656 65.1558C45.671 65.1806 45.686 65.2053 45.707 65.2272C45.73 65.2539 45.758 65.2748 45.787 65.2948C45.803 65.3062 45.813 65.3215 45.831 65.332L49.523 67.3664L48.248 68.1042L46.749 66.2725C46.733 66.2535 46.712 66.2449 46.695 66.2278C46.67 66.2059 46.647 66.183 46.619 66.1669C46.59 66.1488 46.559 66.1392 46.528 66.1278C46.501 66.1174 46.474 66.1078 46.446 66.1021C46.41 66.0955 46.374 66.0964 46.337 66.0983C46.311 66.0983 46.284 66.0983 46.258 66.104C46.222 66.1097 46.19 66.124 46.155 66.1383C46.134 66.1469 46.112 66.1488 46.093 66.1592L44.691 66.978L41.412 62.991C41.397 62.9729 41.376 62.9634 41.358 62.9472C41.334 62.9253 41.311 62.9024 41.283 62.8863C41.256 62.8691 41.226 62.8596 41.197 62.8491C41.166 62.8368 41.137 62.8263 41.105 62.8206C41.075 62.8158 41.045 62.8158 41.015 62.8168C40.981 62.8168 40.949 62.8168 40.914 62.8234C40.883 62.8301 40.855 62.8425 40.826 62.8549C40.803 62.8644 40.778 62.8663 40.757 62.8787L39.364 63.6888L34.302 57.5446C34.286 57.5256 34.264 57.5151 34.245 57.4989C34.222 57.478 34.2 57.457 34.174 57.4399C34.145 57.4227 34.114 57.4123 34.082 57.4008C34.054 57.3894 34.026 57.3789 33.996 57.3742C33.965 57.3685 33.934 57.3694 33.902 57.3694C33.87 57.3704 33.838 57.3704 33.804 57.377C33.774 57.3837 33.744 57.397 33.715 57.4085C33.693 57.418 33.668 57.4199 33.647 57.4323L32.254 58.2424L25.768 50.3608L27.061 49.6078Z" fill="white"/>
</svg>
