<svg width="101" height="128" viewBox="0 0 101 128" fill="none" xmlns="http://www.w3.org/2000/svg">
<path d="M28.4961 82.2497L37.4993 87.5141C37.6558 87.6053 37.8295 87.6503 38.0043 87.6503C38.179 87.6503 38.3527 87.6053 38.5093 87.5141L45.9984 83.1355V91.903C45.9984 92.2686 46.1913 92.6075 46.5034 92.7888L55.5076 98.0531C55.6631 98.1453 55.8368 98.1914 56.0116 98.1914C56.1863 98.1914 56.36 98.1453 56.5166 98.0531L65.5086 92.7888L74.5117 87.5141C74.8248 87.3308 75.0167 86.9929 75.0167 86.6273V70.824C75.0167 70.4584 74.8238 70.1194 74.5117 69.9361L66.0136 64.9677V39.808L70.0142 37.4713C70.3283 37.288 70.5202 36.95 70.5202 36.5834V15.5065C70.5202 15.1409 70.3283 14.8019 70.0142 14.6197L52.0069 4.09193C51.8514 4.00079 51.6776 3.95471 51.5029 3.95471C51.3282 3.95471 51.1545 3.99977 50.9979 4.09193L33.0027 14.6197C32.6896 14.803 32.4977 15.1409 32.4977 15.5065V36.5845C32.4977 36.95 32.6896 37.289 33.0027 37.4713L36.9943 39.807V59.691L28.4951 64.6718C28.183 64.8551 27.9901 65.193 27.9901 65.5586V81.3609C27.9911 81.7275 28.184 82.0664 28.4961 82.2497ZM46.5024 81.066L38.5093 85.7395V71.7107L46.5024 76.3935V81.066ZM46.5024 75.2108L38.5093 70.528V60.2839V40.1029L46.5024 44.7765V75.2108ZM55.5055 96.2785L47.5124 91.606V81.3619V76.9854L55.5055 81.6579V96.2785ZM56.0105 80.7711L48.0174 76.0986L56.0105 71.4158L63.9936 76.0986L56.0105 80.7711ZM47.5124 75.2108V45.3694L51.2494 47.5669C51.2504 47.5669 51.2514 47.5669 51.2524 47.5669C51.2595 47.572 51.2696 47.571 51.2767 47.5751C51.3443 47.6109 51.4191 47.6355 51.5009 47.6355C51.5019 47.6355 51.5019 47.6355 51.5019 47.6355C51.5029 47.6355 51.5029 47.6355 51.5029 47.6355C51.5029 47.6355 51.5029 47.6355 51.5039 47.6355C51.5039 47.6355 51.5039 47.6355 51.5049 47.6355C51.5867 47.6355 51.6605 47.6109 51.7292 47.5751C51.7372 47.572 51.7463 47.572 51.7524 47.5679C51.7534 47.5679 51.7544 47.5679 51.7554 47.5679L64.4976 40.104V65.2647L55.758 70.3806L47.5124 75.2108ZM64.4976 91.606L56.5155 96.2775V81.6579L64.4976 76.9864V91.606ZM73.5007 86.3314L65.5076 91.0142V76.3945L73.5007 71.7118V86.3314ZM72.9957 70.824L65.0026 75.5067L57.0195 70.824L65.0026 66.1514L72.9957 70.824ZM69.0042 36.2885L64.7511 38.7717H64.7501L52.0079 46.2357V26.3414L69.0042 16.3943V36.2885ZM51.5029 5.56956L68.4982 15.5075L51.5029 25.4546L34.5177 15.5075L51.5029 5.56956ZM34.0127 36.2885V16.3932L50.9979 26.3404V46.2336L47.2609 44.0361L38.2578 38.7717L34.0127 36.2885ZM37.4993 61.1707V69.9372L30.0111 65.5596L37.4993 61.1707ZM29.5061 66.4464L37.4993 71.1199V85.7395L29.5061 81.066V66.4464Z" fill="white"/>
</svg>
