<svg width="95" height="125" viewBox="0 0 95 125" fill="none" xmlns="http://www.w3.org/2000/svg">
<g clip-path="url(#clip0)">
<path d="M12.635 59.455C12.646 59.484 12.66 59.511 12.676 59.537C12.692 59.565 12.707 59.593 12.73 59.617C12.752 59.643 12.778 59.664 12.805 59.684C12.823 59.697 12.833 59.714 12.852 59.725L14.922 60.926V72.734C14.922 72.755 14.932 72.774 14.934 72.795C14.939 72.83 14.944 72.862 14.955 72.896C14.966 72.927 14.98 72.954 14.997 72.981C15.013 73.008 15.028 73.035 15.049 73.058C15.072 73.085 15.1 73.107 15.129 73.128C15.145 73.14 15.155 73.156 15.173 73.167L24.481 78.538H24.482C24.49 78.543 24.5 78.543 24.507 78.547C24.574 78.581 24.649 78.606 24.731 78.606C24.813 78.606 24.887 78.582 24.955 78.547C24.963 78.543 24.973 78.543 24.98 78.538H24.981L34.289 73.167C34.307 73.156 34.317 73.14 34.333 73.128C34.362 73.107 34.39 73.085 34.413 73.058C34.434 73.035 34.449 73.008 34.465 72.981C34.482 72.954 34.496 72.927 34.507 72.896C34.518 72.863 34.523 72.831 34.528 72.795C34.53 72.774 34.54 72.756 34.54 72.734V68.229L38.45 70.478H38.451C38.459 70.483 38.468 70.482 38.475 70.486C38.542 70.52 38.617 70.545 38.699 70.545C38.781 70.545 38.855 70.521 38.923 70.486C38.931 70.482 38.94 70.483 38.947 70.478H38.948L42.858 68.229V76.771C42.858 76.792 42.868 76.811 42.871 76.833C42.875 76.867 42.88 76.9 42.891 76.933C42.902 76.964 42.917 76.992 42.934 77.02C42.95 77.046 42.964 77.072 42.986 77.096C43.008 77.122 43.036 77.144 43.064 77.165C43.081 77.177 43.091 77.194 43.11 77.205L45.178 78.394V90.203C45.178 90.224 45.188 90.243 45.191 90.264C45.195 90.299 45.2 90.331 45.211 90.365C45.222 90.396 45.236 90.423 45.253 90.45C45.269 90.477 45.284 90.504 45.305 90.527C45.328 90.554 45.356 90.576 45.385 90.597C45.401 90.609 45.411 90.625 45.429 90.636L54.747 96.017C54.748 96.017 54.748 96.017 54.749 96.018C54.757 96.022 54.766 96.021 54.772 96.025C54.84 96.06 54.915 96.085 54.997 96.085C55.079 96.085 55.153 96.061 55.221 96.026C55.229 96.022 55.239 96.022 55.245 96.017C55.246 96.017 55.246 96.017 55.247 96.017L64.555 90.636C64.573 90.625 64.583 90.609 64.599 90.597C64.628 90.576 64.656 90.554 64.679 90.527C64.7 90.504 64.715 90.477 64.731 90.45C64.748 90.423 64.762 90.396 64.773 90.365C64.784 90.332 64.789 90.3 64.794 90.264C64.796 90.243 64.806 90.225 64.806 90.203V85.686L68.716 87.944C68.717 87.944 68.718 87.944 68.718 87.945C68.726 87.949 68.735 87.948 68.741 87.952C68.809 87.987 68.884 88.012 68.966 88.012C69.048 88.012 69.122 87.988 69.191 87.953C69.198 87.949 69.208 87.949 69.214 87.944C69.215 87.944 69.215 87.944 69.216 87.944L78.513 82.573C78.531 82.562 78.541 82.546 78.557 82.534C78.586 82.513 78.614 82.491 78.637 82.464C78.658 82.441 78.673 82.414 78.689 82.387C78.706 82.36 78.72 82.333 78.731 82.302C78.742 82.269 78.747 82.237 78.752 82.201C78.754 82.18 78.764 82.162 78.764 82.14V70.334L80.853 69.133C80.872 69.122 80.882 69.105 80.899 69.092C80.927 69.071 80.955 69.05 80.977 69.024C80.998 69 81.013 68.974 81.029 68.947C81.046 68.92 81.061 68.892 81.072 68.861C81.083 68.829 81.088 68.796 81.092 68.761C81.095 68.74 81.105 68.721 81.105 68.699V61.264L85.034 58.993C85.052 58.982 85.062 58.966 85.078 58.954C85.107 58.933 85.135 58.911 85.158 58.884C85.179 58.861 85.194 58.834 85.21 58.807C85.227 58.78 85.241 58.753 85.252 58.722C85.263 58.689 85.268 58.657 85.272 58.621C85.275 58.6 85.285 58.582 85.285 58.56V51.793L87.825 50.318C87.844 50.307 87.854 50.29 87.871 50.277C87.899 50.256 87.925 50.236 87.948 50.21C87.969 50.185 87.985 50.159 88.001 50.131C88.017 50.104 88.031 50.077 88.042 50.047C88.054 50.014 88.059 49.98 88.063 49.944C88.065 49.923 88.075 49.906 88.075 49.885V33.766C88.075 33.755 88.07 33.746 88.069 33.737C88.068 33.716 88.065 33.695 88.061 33.675C88.056 33.651 88.05 33.628 88.042 33.605C88.034 33.584 88.026 33.564 88.016 33.544C88.012 33.535 88.012 33.525 88.007 33.517C88.002 33.509 87.994 33.504 87.988 33.496C87.976 33.476 87.963 33.46 87.947 33.442C87.932 33.424 87.916 33.409 87.898 33.393C87.881 33.377 87.865 33.365 87.846 33.352C87.837 33.347 87.833 33.338 87.825 33.333L85.755 32.132V29.729C85.755 29.718 85.75 29.709 85.749 29.7C85.748 29.678 85.745 29.657 85.74 29.636C85.736 29.613 85.73 29.591 85.722 29.569C85.714 29.548 85.706 29.527 85.696 29.507C85.692 29.498 85.692 29.488 85.687 29.48C85.682 29.472 85.673 29.466 85.668 29.459C85.655 29.44 85.643 29.424 85.628 29.407C85.612 29.388 85.596 29.372 85.577 29.356C85.56 29.341 85.544 29.329 85.525 29.316C85.517 29.311 85.512 29.302 85.504 29.297L70.37 20.567C70.352 20.557 70.334 20.556 70.316 20.548C70.281 20.533 70.248 20.52 70.212 20.513C70.183 20.508 70.154 20.507 70.125 20.507C70.091 20.507 70.058 20.508 70.024 20.514C69.991 20.521 69.961 20.534 69.929 20.546C69.909 20.555 69.888 20.556 69.869 20.567L67.789 21.768L38.946 5.11399C38.928 5.10399 38.909 5.10299 38.891 5.09499C38.857 5.07999 38.824 5.06799 38.787 5.05999C38.759 5.05599 38.73 5.05499 38.7 5.05499C38.666 5.05499 38.634 5.05599 38.599 5.06199C38.567 5.06899 38.537 5.08199 38.505 5.09399C38.485 5.10299 38.464 5.10399 38.445 5.11499L12.853 19.89C12.844 19.895 12.839 19.904 12.831 19.91C12.813 19.922 12.797 19.934 12.78 19.949C12.761 19.965 12.745 19.981 12.729 20C12.714 20.017 12.702 20.033 12.689 20.052C12.684 20.06 12.675 20.065 12.67 20.073C12.665 20.081 12.665 20.092 12.661 20.1C12.65 20.12 12.642 20.14 12.635 20.162C12.627 20.184 12.621 20.206 12.617 20.229C12.613 20.25 12.609 20.271 12.608 20.293C12.607 20.303 12.602 20.312 12.602 20.322V40.48V46.736V59.293C12.602 59.314 12.612 59.331 12.614 59.352C12.618 59.387 12.623 59.421 12.635 59.455ZM24.229 77.24L15.921 72.446V61.505L24.229 66.297V77.24ZM33.537 67.365V72.446L25.229 77.24V66.297L33.537 61.505V67.365ZM33.787 60.205L25.229 65.142V54.319L34.61 59.73L33.787 60.205ZM38.196 69.181L34.537 67.077V60.929L35.613 60.309L38.196 61.803V69.181ZM42.855 67.076L39.196 69.18V62.378L42.855 64.49V67.076ZM54.493 94.719L46.175 89.915V78.971L54.493 83.775V94.719ZM54.493 82.621L45.925 77.673C45.925 77.673 45.925 77.672 45.924 77.672L43.856 76.483V67.366V65.069L54.494 71.209V82.621H54.493ZM54.493 70.055L43.855 63.915V58.824L54.493 64.962V70.055ZM63.801 84.82V89.915L55.493 94.718V83.774L63.801 78.971V84.82ZM64.052 77.672C64.051 77.672 64.051 77.673 64.052 77.672L55.493 82.62V71.786L58.922 73.768C58.923 73.768 58.924 73.768 58.924 73.769C58.932 73.773 58.941 73.772 58.947 73.776C59.015 73.811 59.09 73.836 59.172 73.836C59.254 73.836 59.328 73.812 59.397 73.776C59.404 73.772 59.413 73.773 59.42 73.769C59.42 73.768 59.421 73.768 59.422 73.768L66.12 69.893V74.08V76.482L64.052 77.672ZM68.461 86.646L64.801 84.533V78.395L66.869 77.206C66.888 77.195 66.898 77.178 66.915 77.165C66.943 77.144 66.971 77.123 66.993 77.097C67.014 77.073 67.029 77.047 67.045 77.02C67.062 76.993 67.077 76.965 67.088 76.934C67.099 76.902 67.104 76.869 67.108 76.834C67.111 76.813 67.121 76.794 67.121 76.772V74.942L68.462 75.706V86.646H68.461ZM68.461 74.554L67.12 73.79V69.317L68.461 68.553V74.554ZM77.758 81.853L69.461 86.646V75.702L77.758 70.911V81.853ZM80.098 68.41L78.009 69.611C78.008 69.611 78.008 69.612 78.008 69.612L69.461 74.548V67.982L80.098 61.842V68.41ZM84.276 58.272L80.347 60.543L68.715 67.257C68.714 67.257 68.713 67.257 68.712 67.258L66.371 68.592C66.37 68.593 66.369 68.594 66.368 68.595L59.671 72.469V47.222L63.33 45.109V54.995C63.33 55.016 63.34 55.035 63.343 55.056C63.347 55.091 63.352 55.123 63.363 55.157C63.374 55.188 63.388 55.215 63.405 55.242C63.421 55.269 63.436 55.296 63.457 55.319C63.48 55.346 63.508 55.368 63.537 55.389C63.553 55.401 63.563 55.417 63.581 55.428L68.711 58.393C68.712 58.393 68.712 58.393 68.713 58.394C68.721 58.398 68.73 58.398 68.737 58.402C68.805 58.436 68.879 58.461 68.961 58.461C69.043 58.461 69.117 58.437 69.186 58.401C69.194 58.397 69.203 58.397 69.209 58.393C69.211 58.392 69.212 58.393 69.213 58.392L71.289 57.182L73.356 58.392C73.358 58.393 73.359 58.392 73.361 58.393C73.369 58.398 73.377 58.397 73.384 58.401C73.452 58.436 73.527 58.461 73.609 58.461C73.69 58.461 73.764 58.438 73.833 58.402C73.841 58.398 73.85 58.398 73.857 58.394C73.857 58.393 73.858 58.393 73.859 58.393L84.276 52.373V58.272V58.272ZM64.324 44.219C64.321 44.143 64.304 44.067 64.264 43.996C64.263 43.994 64.262 43.992 64.261 43.99C64.219 43.919 64.161 43.867 64.097 43.826C64.09 43.822 64.087 43.813 64.08 43.809L54.322 38.18V31.272L68.46 39.423V57.092L64.33 54.705V44.242C64.331 44.233 64.325 44.227 64.324 44.219ZM70.62 55.645V40.678L73.109 42.115V57.088L71.543 56.171C71.542 56.17 71.54 56.17 71.539 56.17C71.538 56.169 71.538 56.168 71.537 56.168L70.62 55.645ZM87.065 49.599L84.525 51.074C84.524 51.074 84.524 51.075 84.523 51.076L74.109 57.094V42.114L87.065 34.632V49.599ZM84.997 32.854L86.567 33.765L73.609 41.249L71.12 39.812L84.086 32.329L84.997 32.854ZM84.746 31.554L84.337 31.319C84.318 31.308 84.298 31.307 84.279 31.299C84.246 31.285 84.215 31.273 84.179 31.266C84.148 31.26 84.117 31.26 84.086 31.26C84.055 31.26 84.024 31.26 83.992 31.267C83.956 31.274 83.924 31.287 83.889 31.301C83.871 31.309 83.853 31.31 83.835 31.32L69.87 39.38C69.863 39.384 69.861 39.392 69.854 39.396C69.789 39.437 69.73 39.49 69.689 39.561C69.688 39.563 69.687 39.565 69.686 39.567C69.646 39.637 69.629 39.713 69.626 39.79C69.625 39.798 69.619 39.805 69.619 39.813V55.936C69.619 55.957 69.629 55.977 69.632 55.998C69.636 56.033 69.641 56.065 69.652 56.099C69.664 56.13 69.679 56.158 69.695 56.186C69.711 56.212 69.726 56.238 69.747 56.262C69.77 56.288 69.798 56.31 69.827 56.331C69.844 56.344 69.854 56.36 69.873 56.371L70.289 56.607L69.461 57.089V39.423L84.746 30.595V31.554ZM68.035 22.781C68.036 22.78 68.036 22.78 68.037 22.78L68.04 22.778L70.12 21.577L84.247 29.728L68.962 38.557L54.824 30.405L68.035 22.781ZM38.696 6.12399L66.791 22.346L53.573 29.974C53.564 29.979 53.56 29.987 53.552 29.993C53.532 30.006 53.515 30.019 53.496 30.035C53.478 30.05 53.464 30.066 53.448 30.084C53.434 30.1 53.422 30.115 53.41 30.133C53.403 30.143 53.394 30.148 53.389 30.157C53.384 30.166 53.384 30.178 53.379 30.187C53.369 30.206 53.362 30.225 53.355 30.246C53.347 30.267 53.342 30.289 53.337 30.311C53.333 30.334 53.329 30.356 53.328 30.378C53.327 30.388 53.322 30.397 53.322 30.406V38.468C53.322 38.489 53.332 38.508 53.335 38.529C53.339 38.564 53.344 38.596 53.355 38.63C53.366 38.661 53.38 38.688 53.397 38.715C53.413 38.742 53.428 38.769 53.449 38.792C53.472 38.819 53.5 38.841 53.529 38.862C53.545 38.874 53.555 38.89 53.573 38.901L62.831 44.243L59.172 46.356L14.102 20.322L38.696 6.12399ZM13.603 21.188L58.672 47.221V72.47L55.493 70.632V64.674C55.493 64.653 55.483 64.634 55.48 64.613C55.476 64.578 55.471 64.546 55.46 64.512C55.449 64.481 55.435 64.454 55.418 64.427C55.402 64.4 55.387 64.373 55.366 64.35C55.343 64.323 55.315 64.301 55.286 64.28C55.27 64.268 55.26 64.252 55.242 64.241L43.604 57.526C43.595 57.521 43.585 57.521 43.577 57.516C43.547 57.501 43.515 57.494 43.482 57.484C43.448 57.475 43.415 57.465 43.38 57.463C43.371 57.463 43.363 57.458 43.354 57.458C43.334 57.458 43.319 57.467 43.3 57.469C43.261 57.474 43.225 57.479 43.188 57.491C43.161 57.501 43.137 57.514 43.113 57.528C43.083 57.546 43.054 57.562 43.028 57.586C43.003 57.608 42.982 57.635 42.962 57.662C42.95 57.679 42.933 57.689 42.922 57.708C42.917 57.717 42.917 57.727 42.913 57.735C42.897 57.765 42.889 57.798 42.88 57.833C42.871 57.865 42.862 57.895 42.86 57.929C42.859 57.939 42.854 57.948 42.854 57.958V63.337L38.945 61.08L35.865 59.3C35.864 59.299 35.863 59.298 35.862 59.297L25.229 53.164V47.195C25.229 47.174 25.219 47.155 25.216 47.134C25.212 47.099 25.207 47.067 25.196 47.033C25.185 47.002 25.171 46.975 25.154 46.948C25.138 46.921 25.123 46.894 25.102 46.871C25.079 46.844 25.051 46.822 25.022 46.801C25.006 46.789 24.996 46.773 24.978 46.762L13.601 40.192V21.188H13.603ZM13.603 41.347L24.23 47.484V52.588L13.603 46.449V41.347ZM13.603 47.603L24.23 53.742V65.142L15.672 60.205C15.671 60.205 15.671 60.205 15.67 60.204L13.603 59.005V47.603Z" fill="white"/>
</g>
<defs>
<clipPath id="clip0">
<rect width="100" height="125" fill="white"/>
</clipPath>
</defs>
</svg>
