<svg width="79" height="91" viewBox="0 0 79 91" fill="none" xmlns="http://www.w3.org/2000/svg">
<path d="M76.2161 44.8018C76.2129 44.7851 76.2082 44.7691 76.2019 44.7531C76.1955 44.7378 76.1892 44.7225 76.1813 44.7079C76.1782 44.7014 76.1782 44.6941 76.1742 44.6883C76.1703 44.6824 76.1631 44.6781 76.1592 44.673C76.1489 44.6592 76.1394 44.6475 76.1276 44.6351C76.1142 44.6213 76.1023 44.6096 76.0873 44.598C76.0739 44.5871 76.0612 44.5783 76.0462 44.5689C76.0399 44.5652 76.036 44.5587 76.0296 44.555L72.8799 42.8792L74.155 42.1985C74.1692 42.1912 74.1771 42.1789 74.1897 42.1701C74.2126 42.1548 74.2348 42.1388 74.2529 42.1192C74.2695 42.1024 74.2814 42.0828 74.294 42.0638C74.3066 42.0434 74.3185 42.0231 74.3272 42.0005C74.3359 41.9772 74.3398 41.9532 74.343 41.9277C74.3454 41.9124 74.3533 41.8993 74.3533 41.8833V37.9019C74.3533 37.8938 74.3493 37.8873 74.3485 37.8807C74.3469 37.8567 74.3398 37.8349 74.3327 37.8109C74.3256 37.7861 74.3185 37.7621 74.3066 37.7395C74.3035 37.733 74.3035 37.7257 74.2995 37.7199C74.2909 37.7068 74.2782 37.6995 74.2687 37.6878C74.2521 37.6667 74.2348 37.6463 74.2134 37.6296C74.1953 37.6143 74.1739 37.6034 74.1526 37.5917C74.1313 37.5794 74.1099 37.5692 74.0862 37.5612C74.0594 37.5524 74.0325 37.5488 74.0041 37.5459C73.9883 37.5444 73.9748 37.5371 73.9583 37.5371C73.9504 37.5371 73.9432 37.5408 73.9361 37.5415C73.9093 37.543 73.884 37.5495 73.8571 37.5561C73.8311 37.5633 73.8066 37.5692 73.7821 37.5794C73.775 37.583 73.7671 37.583 73.7608 37.5866L70.6118 39.2625V36.1212L74.1558 34.2356C74.17 34.2276 74.1779 34.216 74.1905 34.2073C74.2134 34.192 74.2355 34.176 74.2537 34.1563C74.2703 34.1396 74.2822 34.1199 74.2948 34.1002C74.3082 34.0806 74.3193 34.0609 74.328 34.0384C74.3367 34.0143 74.3406 33.991 74.3446 33.9648C74.3462 33.9495 74.3541 33.9364 74.3541 33.9204V25.9437V21.9623C74.3541 21.9543 74.3501 21.9477 74.3493 21.9412C74.3477 21.9172 74.3406 21.8953 74.3335 21.8713C74.3264 21.8465 74.3193 21.8225 74.3074 21.8C74.3043 21.7934 74.3043 21.7861 74.3003 21.7803C74.2916 21.7672 74.279 21.7599 74.2695 21.7475C74.2529 21.7272 74.2363 21.7075 74.215 21.6908C74.1953 21.6747 74.1731 21.6624 74.1502 21.65C74.1305 21.6391 74.1107 21.6296 74.0886 21.6223C74.0602 21.6129 74.0309 21.6085 74.0009 21.6063C73.9867 21.6048 73.9741 21.5983 73.9591 21.5983C73.9512 21.5983 73.9456 21.6019 73.9385 21.6019C73.9109 21.6034 73.884 21.6107 73.8563 21.6172C73.8319 21.6238 73.8074 21.6296 73.7837 21.6398C73.7766 21.6434 73.7687 21.6434 73.7623 21.6471L70.6134 23.3229V19.9712C70.6134 19.9632 70.6094 19.9567 70.6087 19.9501C70.6071 19.9261 70.6 19.9042 70.5929 19.8802C70.5857 19.8555 70.5786 19.8314 70.5668 19.8089C70.5636 19.8023 70.5636 19.795 70.5597 19.7892C70.5518 19.7761 70.5383 19.7688 70.5289 19.7572C70.5123 19.7361 70.4949 19.7157 70.4736 19.6989C70.4546 19.6837 70.4341 19.6727 70.4127 19.6611C70.3914 19.6487 70.3693 19.6385 70.3456 19.6305C70.3187 19.6218 70.2927 19.6181 70.2642 19.6152C70.2476 19.6138 70.2342 19.6065 70.2176 19.6065C70.2097 19.6065 70.2026 19.6101 70.1955 19.6109C70.1686 19.6123 70.1433 19.6189 70.1157 19.6261C70.0904 19.6327 70.0651 19.6385 70.0414 19.6487C70.0343 19.6524 70.0264 19.6524 70.0201 19.656L66.8712 21.3318V17.9801C66.8712 17.9729 66.8672 17.9663 66.8664 17.9598C66.8648 17.935 66.8577 17.911 66.8498 17.8855C66.8427 17.8629 66.8372 17.8404 66.8261 17.82C66.8222 17.8127 66.823 17.8047 66.8182 17.7981C66.8095 17.7836 66.7953 17.7756 66.7843 17.7632C66.7677 17.7435 66.7527 17.7246 66.7321 17.7086C66.7132 17.6933 66.6926 17.6817 66.6705 17.67C66.6492 17.6576 66.6271 17.6474 66.6034 17.6394C66.5773 17.6314 66.552 17.6278 66.5244 17.6249C66.5078 17.6227 66.4928 17.6154 66.4754 17.6154C66.4667 17.6154 66.4596 17.6198 66.4517 17.6198C66.4256 17.6212 66.4011 17.6278 66.3743 17.6343C66.349 17.6409 66.3245 17.6467 66.3008 17.6569C66.2929 17.6605 66.285 17.6598 66.2779 17.6642L62.527 19.656C62.5112 19.6647 62.5025 19.6771 62.489 19.6873C62.4677 19.7026 62.4472 19.7164 62.4298 19.7346C62.4132 19.7528 62.4006 19.7725 62.3871 19.7929C62.3745 19.8125 62.3634 19.8314 62.3547 19.8533C62.3453 19.878 62.3421 19.9021 62.3381 19.929C62.3366 19.9436 62.3287 19.9567 62.3287 19.9719V23.3244L61.2519 22.7551V20.9759C61.2519 20.9686 61.2479 20.962 61.2472 20.9555C61.2456 20.9314 61.2385 20.9082 61.2314 20.8827C61.2243 20.8601 61.2179 20.8375 61.2077 20.8157C61.2037 20.8091 61.2037 20.8011 61.1998 20.7953C61.1911 20.7815 61.1776 20.7735 61.1674 20.7611C61.1508 20.7407 61.1334 20.7203 61.1121 20.7036C61.0947 20.689 61.0749 20.6788 61.0552 20.6679C61.0315 20.6548 61.0078 20.6432 60.9817 20.6352C60.958 20.6271 60.9335 20.6242 60.909 20.6213C60.8917 20.6184 60.8751 20.6111 60.8569 20.6111C60.8482 20.6111 60.8411 20.6155 60.8332 20.6155C60.8071 20.617 60.7826 20.6242 60.7566 20.6301C60.7313 20.6366 60.7068 20.6424 60.6831 20.6519C60.676 20.6555 60.6673 20.6555 60.661 20.6592L59.3772 21.3348V17.9816C59.3772 17.9736 59.3725 17.967 59.3725 17.959C59.3709 17.9357 59.3638 17.9132 59.3567 17.8891C59.3496 17.8644 59.3425 17.8411 59.3306 17.8185C59.3267 17.812 59.3267 17.804 59.3227 17.7981C59.314 17.785 59.3014 17.7778 59.2919 17.7661C59.2753 17.7457 59.2579 17.7253 59.2374 17.7093C59.2176 17.6933 59.1963 17.6817 59.1742 17.67C59.1537 17.6584 59.1331 17.6489 59.1102 17.6416C59.0818 17.6322 59.0541 17.6278 59.0241 17.6256C59.0091 17.6241 58.9972 17.6176 58.9822 17.6176C58.9743 17.6176 58.968 17.6212 58.9609 17.622C58.9325 17.6234 58.9064 17.63 58.8779 17.6372C58.8535 17.6438 58.829 17.6504 58.8069 17.6605C58.799 17.6642 58.7903 17.6635 58.7839 17.6678L57.512 18.3521V15.0041C57.512 14.9968 57.5081 14.9902 57.5073 14.9837C57.5057 14.9589 57.4986 14.9349 57.4907 14.9094C57.4836 14.8869 57.4781 14.8643 57.467 14.8432C57.4631 14.8366 57.4638 14.8286 57.4591 14.8221C57.4504 14.8075 57.4362 14.7995 57.4259 14.7871C57.4093 14.7675 57.3935 14.7485 57.3738 14.7325C57.354 14.7172 57.3335 14.7056 57.3114 14.6939C57.29 14.6816 57.2679 14.6714 57.2442 14.6634C57.2182 14.6554 57.1929 14.6517 57.1652 14.6488C57.1486 14.6466 57.1336 14.6393 57.1163 14.6393C57.1076 14.6393 57.1004 14.6437 57.0925 14.6437C57.0665 14.6452 57.042 14.6517 57.0151 14.6583C56.9898 14.6648 56.9654 14.6706 56.9417 14.6808C56.9346 14.6845 56.9259 14.6838 56.9188 14.6881L53.1686 16.6785C53.1528 16.6872 53.1441 16.6996 53.1299 16.7098C53.1094 16.7251 53.0888 16.7389 53.0722 16.7564C53.0549 16.7746 53.0414 16.795 53.028 16.8161C53.0161 16.835 53.0051 16.8539 52.9972 16.8758C52.9877 16.8998 52.983 16.9245 52.9806 16.9515C52.979 16.966 52.9711 16.9791 52.9711 16.9944V20.7647L51.3042 21.6463C51.3042 21.6471 51.3034 21.6471 51.3026 21.6471L47.5525 23.6374C47.5517 23.6382 47.5509 23.6389 47.5501 23.6389L46.279 24.3232V20.9751C46.279 20.9678 46.2751 20.9613 46.2743 20.9547C46.2727 20.93 46.2656 20.906 46.2577 20.8805C46.2506 20.8579 46.2451 20.8354 46.234 20.8142C46.23 20.8077 46.2308 20.7997 46.2261 20.7931C46.2174 20.7786 46.2032 20.7706 46.1921 20.7582C46.1755 20.7385 46.1605 20.7196 46.1408 20.7036C46.121 20.6883 46.0997 20.6759 46.0776 20.6643C46.0562 20.6526 46.0349 20.6424 46.012 20.6344C45.9851 20.6264 45.9591 20.6228 45.9306 20.6191C45.914 20.6177 45.9006 20.6104 45.8832 20.6104C45.8745 20.6104 45.8682 20.614 45.8603 20.6148C45.8343 20.6162 45.809 20.6228 45.7821 20.6293C45.7568 20.6359 45.7323 20.6417 45.7086 20.6519C45.7015 20.6555 45.6928 20.6548 45.6857 20.6592L42.1331 22.5454L38.7954 20.7655V16.9937C38.7954 16.9864 38.7914 16.9799 38.7906 16.9733C38.789 16.9486 38.7819 16.9245 38.774 16.8991C38.7669 16.8765 38.7614 16.8539 38.7503 16.8328C38.7464 16.8263 38.7472 16.8182 38.7424 16.8117C38.7337 16.7971 38.7195 16.7891 38.7085 16.7768C38.6919 16.7571 38.6769 16.7382 38.6563 16.7222C38.6374 16.7069 38.6168 16.6952 38.5947 16.6836C38.5734 16.6712 38.5512 16.661 38.5275 16.653C38.5015 16.645 38.4762 16.6413 38.4485 16.6384C38.432 16.6362 38.4169 16.629 38.3996 16.629C38.3909 16.629 38.3838 16.6333 38.3759 16.6333C38.3498 16.6348 38.3253 16.6413 38.2984 16.6479C38.2732 16.6544 38.2487 16.6603 38.225 16.6705C38.2171 16.6741 38.2092 16.6734 38.2021 16.6777L34.4519 18.6681C34.4361 18.6768 34.4274 18.6892 34.4132 18.6994C34.3927 18.7147 34.3721 18.7285 34.3556 18.746C34.3382 18.7642 34.3247 18.7846 34.3113 18.8057C34.2995 18.8246 34.2884 18.8435 34.2805 18.8654C34.2702 18.8894 34.2671 18.9142 34.2639 18.9411C34.2623 18.9557 34.2544 18.9688 34.2544 18.984V22.7544L32.7842 23.5319L29.8257 21.9616L32.981 20.2864C32.9968 20.2777 33.0054 20.2653 33.0197 20.2551C33.0402 20.2398 33.0607 20.226 33.0773 20.2078C33.0947 20.1903 33.1081 20.17 33.1216 20.1488C33.1334 20.1299 33.1445 20.111 33.1524 20.0892C33.1619 20.0651 33.1666 20.0404 33.169 20.0134C33.1721 20.0003 33.18 19.9865 33.18 19.9719V15.9905C33.18 15.9832 33.1761 15.9767 33.1753 15.9701C33.1737 15.9454 33.1666 15.9214 33.1587 15.8959C33.1516 15.8733 33.1461 15.8507 33.135 15.8296C33.1311 15.8231 33.1318 15.8151 33.1271 15.8085C33.1176 15.794 33.1042 15.7859 33.0931 15.7736C33.0765 15.7539 33.0615 15.735 33.0418 15.719C33.022 15.7037 33.0007 15.692 32.9786 15.6797C32.9573 15.668 32.9367 15.6578 32.913 15.6498C32.8862 15.6411 32.8601 15.6382 32.8309 15.6345C32.8151 15.6331 32.8008 15.6258 32.7842 15.6258C32.7763 15.6258 32.7692 15.6294 32.7621 15.6302C32.7353 15.6316 32.7092 15.6382 32.6815 15.6454C32.6571 15.652 32.6326 15.6571 32.6104 15.6673C32.6025 15.6709 32.5939 15.6702 32.5867 15.6746L25.679 19.3415V15.9898C25.679 15.9818 25.6742 15.9752 25.6742 15.9679C25.6727 15.9446 25.6656 15.9221 25.6584 15.8981C25.6513 15.8733 25.6442 15.85 25.6324 15.8274C25.6292 15.8209 25.6292 15.8136 25.6253 15.8078C25.6174 15.7947 25.6047 15.7881 25.5952 15.7765C25.5779 15.7546 25.5597 15.7335 25.5376 15.7161C25.5202 15.7022 25.5004 15.692 25.4815 15.6811C25.4578 15.668 25.4349 15.6571 25.4088 15.6491C25.3835 15.6403 25.3582 15.6374 25.3306 15.6338C25.314 15.6323 25.3006 15.6251 25.2832 15.6251C25.2745 15.6251 25.2674 15.6294 25.2603 15.6294C25.2326 15.6309 25.2074 15.6374 25.1797 15.6447C25.1552 15.6513 25.1307 15.6571 25.107 15.6673C25.0999 15.6709 25.092 15.6709 25.0857 15.6746L21.9454 17.349V13.9994C21.9454 13.9914 21.9415 13.9849 21.9407 13.9783C21.9391 13.9543 21.932 13.9317 21.9249 13.907C21.9178 13.8822 21.9115 13.8604 21.8996 13.8378C21.8965 13.8313 21.8965 13.8233 21.8925 13.8174C21.8838 13.8036 21.8704 13.7963 21.8601 13.7839C21.8435 13.7636 21.8269 13.7439 21.8064 13.7279C21.7874 13.7126 21.7677 13.7017 21.7456 13.69C21.7235 13.6777 21.7013 13.6667 21.6768 13.6587C21.6524 13.6507 21.6271 13.6478 21.6002 13.6442C21.5836 13.642 21.5678 13.6347 21.5504 13.6347C21.5418 13.6347 21.5346 13.6391 21.5267 13.6391C21.5007 13.6405 21.477 13.6471 21.4509 13.6536C21.4248 13.6602 21.3996 13.666 21.3759 13.6762C21.368 13.6798 21.3601 13.6798 21.3529 13.6835L17.6028 15.6738C17.5878 15.6818 17.5791 15.6942 17.5657 15.7044C17.5444 15.7197 17.523 15.7343 17.5056 15.7525C17.4891 15.7699 17.4764 15.7896 17.4638 15.81C17.4511 15.8296 17.4393 15.8493 17.4306 15.8718C17.4219 15.8951 17.418 15.9192 17.414 15.9454C17.4124 15.9607 17.4045 15.9738 17.4045 15.9898V19.7623L15.932 20.5543L8.64738 16.6792C8.63158 16.6705 8.61499 16.6697 8.59919 16.6639C8.57549 16.6544 8.55257 16.6464 8.52729 16.6413C8.49885 16.6362 8.472 16.6355 8.44435 16.6355C8.42223 16.6362 8.4009 16.6362 8.37878 16.6399C8.34955 16.645 8.32427 16.6544 8.29662 16.6646C8.28161 16.6705 8.2666 16.6712 8.25238 16.6785L4.50303 18.6688C4.49592 18.6725 4.49198 18.679 4.48566 18.6834C4.47065 18.6928 4.45722 18.7023 4.443 18.7132C4.42878 18.7249 4.41693 18.7358 4.40508 18.7489C4.39402 18.7613 4.38375 18.7729 4.37427 18.786C4.36953 18.7926 4.36241 18.7962 4.35767 18.8028C4.35372 18.8093 4.35373 18.8173 4.34978 18.8232C4.34188 18.8377 4.33556 18.8523 4.33003 18.8676C4.3245 18.8836 4.31975 18.8996 4.3158 18.9156C4.31185 18.9316 4.31028 18.9469 4.3087 18.9629C4.3087 18.9709 4.30396 18.9775 4.30396 18.984V22.9655C4.30396 22.9808 4.31107 22.9939 4.31344 23.0092C4.3166 23.0346 4.32055 23.0594 4.33003 23.0841C4.33793 23.106 4.34977 23.1256 4.36241 23.1453C4.37505 23.165 4.38769 23.1853 4.40428 23.2028C4.42166 23.221 4.443 23.2363 4.46433 23.2509C4.47776 23.2603 4.48645 23.2734 4.50146 23.2814L9.92007 26.1534V27.9334C9.92007 27.9414 9.92402 27.9479 9.92481 27.9545C9.9256 27.9705 9.92796 27.9858 9.93191 28.0018C9.93586 28.0178 9.93982 28.0338 9.94614 28.0498C9.95167 28.0651 9.95799 28.0797 9.96589 28.0942C9.96984 28.1008 9.96905 28.1088 9.97379 28.1146C9.97695 28.1204 9.98405 28.1226 9.988 28.1277C9.99827 28.1423 10.0085 28.1554 10.0212 28.1692C10.0394 28.1882 10.0599 28.2034 10.082 28.2187C10.0954 28.2282 10.1041 28.2406 10.1191 28.2486L13.671 30.1341V33.9204C13.671 33.9284 13.6749 33.935 13.6757 33.9415C13.6773 33.9656 13.6844 33.9881 13.6915 34.0122C13.6986 34.0369 13.7057 34.0602 13.7176 34.0828C13.7208 34.0893 13.7208 34.0966 13.7247 34.1024C13.7302 34.1112 13.7405 34.1148 13.746 34.1221C13.7745 34.1599 13.8084 34.1912 13.8495 34.2167C13.8637 34.2255 13.8748 34.2342 13.889 34.2407C13.9427 34.2662 14.0012 34.2844 14.066 34.2844H14.0668C14.1323 34.2837 14.1908 34.2662 14.2445 34.2393C14.2501 34.2371 14.2572 34.2378 14.2627 34.2349L17.7979 32.3494L26.7692 37.1163V38.8963C26.7692 38.9116 26.7771 38.9254 26.7787 38.9407C26.7826 38.9662 26.7866 38.9895 26.7953 39.0142C26.8039 39.0368 26.815 39.0565 26.8284 39.0761C26.8411 39.0958 26.8529 39.1154 26.8695 39.1322C26.8877 39.1518 26.9098 39.1678 26.9327 39.1831C26.9454 39.1919 26.9533 39.2035 26.9675 39.2115L32.39 42.0937V43.6647L26.9714 46.5454C26.9572 46.5534 26.9493 46.5651 26.9367 46.5738C26.9138 46.5891 26.8916 46.6051 26.8735 46.6248C26.8569 46.6415 26.845 46.6612 26.8324 46.6808C26.819 46.7005 26.8079 46.7201 26.7992 46.7427C26.7905 46.7667 26.7866 46.79 26.7826 46.8162C26.781 46.8315 26.7731 46.8446 26.7731 46.8606V50.8501C26.7731 50.8581 26.7779 50.8646 26.7779 50.8719C26.7795 50.8952 26.7866 50.9178 26.7937 50.9418C26.8008 50.9665 26.8079 50.9898 26.8197 51.0124C26.8229 51.019 26.8229 51.0262 26.8269 51.0321C26.8324 51.0408 26.8427 51.0444 26.8482 51.0517C26.8766 51.0896 26.9106 51.1209 26.9525 51.1464C26.9659 51.1551 26.977 51.1638 26.9912 51.1704C27.0449 51.1959 27.1041 51.2141 27.1689 51.2141C27.2345 51.2141 27.2937 51.1959 27.349 51.1689C27.3546 51.166 27.3617 51.1675 27.3664 51.1646L32.7842 48.2759L36.1228 50.0638V53.8356C36.1228 53.8429 36.1267 53.8494 36.1275 53.856C36.1291 53.8807 36.1362 53.9048 36.1441 53.9302C36.1512 53.9528 36.1568 53.9754 36.1678 53.9965C36.1718 54.003 36.171 54.011 36.1757 54.0176C36.182 54.0271 36.1923 54.0307 36.1994 54.0394C36.2271 54.0758 36.2595 54.1057 36.2997 54.1304C36.314 54.1399 36.3258 54.1494 36.3416 54.1566C36.3945 54.1814 36.4538 54.1996 36.5186 54.1996C36.5834 54.1996 36.6418 54.1821 36.6971 54.1559C36.7034 54.153 36.7105 54.1545 36.7161 54.1508L39.8737 52.4742V55.8259C39.8737 55.834 39.8777 55.8405 39.8784 55.8471C39.88 55.8711 39.8871 55.8929 39.8942 55.9169C39.9014 55.9417 39.9085 55.9657 39.9203 55.9883C39.9235 55.9948 39.9235 56.0021 39.9274 56.0079C39.933 56.0167 39.9432 56.0203 39.9488 56.0276C39.9772 56.0655 40.0104 56.096 40.0522 56.1215C40.0657 56.131 40.0767 56.1397 40.0925 56.147C40.1455 56.1717 40.2047 56.1899 40.2695 56.1899C40.3351 56.1899 40.3943 56.1717 40.4496 56.1448C40.4551 56.1419 40.4623 56.1433 40.467 56.1404L44.2076 54.1501L47.7508 52.2646L51.1067 54.046V57.8163C51.1067 57.8243 51.1107 57.8309 51.1115 57.8374C51.113 57.8614 51.1201 57.8833 51.1273 57.9073C51.1344 57.932 51.1415 57.9561 51.1533 57.9786C51.1565 57.9852 51.1565 57.9925 51.1604 57.9983C51.166 58.007 51.1762 58.0107 51.1818 58.018C51.2102 58.0558 51.2434 58.0864 51.2853 58.1119C51.2987 58.1213 51.3097 58.1301 51.3255 58.1373C51.3785 58.1621 51.4377 58.1803 51.5025 58.1803C51.5681 58.1803 51.6273 58.1621 51.6826 58.1352C51.6882 58.1322 51.6953 58.1337 51.7 58.1308L55.4383 56.1419C55.4391 56.1412 55.4399 56.1419 55.4407 56.1412L57.1194 55.2501L64.404 59.126H64.4048C64.4111 59.1296 64.4182 59.1296 64.4245 59.1325C64.4775 59.1573 64.5367 59.1755 64.6015 59.1755C64.6663 59.1755 64.7247 59.158 64.7792 59.1325C64.7848 59.1296 64.7927 59.1296 64.7974 59.126C64.7982 59.126 64.7982 59.126 64.799 59.126L76.032 53.1542C76.0462 53.1462 76.0541 53.1345 76.0668 53.1258C76.0897 53.1105 76.1118 53.0945 76.13 53.0748C76.1466 53.0581 76.1584 53.0384 76.171 53.0188C76.1845 52.9991 76.1955 52.9795 76.2042 52.9569C76.2129 52.9329 76.2169 52.9096 76.2208 52.8834C76.2224 52.8681 76.2303 52.855 76.2303 52.839V44.8703C76.2303 44.8623 76.2263 44.8557 76.2256 44.8492C76.2216 44.8324 76.2192 44.8171 76.2161 44.8018ZM70.611 24.1623L73.5625 22.592V25.7333L70.611 27.3036V24.1623ZM70.611 31.9308V28.1437L73.5625 26.5734V33.7122L70.611 35.2825V31.9308ZM32.39 47.6461L27.5639 50.2196V47.0703L32.39 44.5048V47.6461ZM70.611 40.1033L73.5625 38.533V41.6744L72.0907 42.4591L70.611 41.6736V40.1033ZM66.8696 22.172L69.821 20.6017V23.743L66.8696 25.3133V22.172ZM66.8696 26.1534L69.821 24.5831V27.7244L66.8696 29.2947V26.1534ZM66.8696 30.1348L69.821 28.5645V31.7219L66.8696 33.2922V30.1348ZM69.821 32.5612V35.2825L67.2638 33.9219L69.821 32.5612ZM66.8696 34.5516L69.4268 35.9122L66.8696 37.2729V34.5516ZM63.1195 20.1823L66.0788 18.6113V21.7519L63.1195 23.3229V20.1823ZM66.0796 22.592V25.3133L63.5176 23.9526L66.0796 22.592ZM63.1195 24.5831L65.6814 25.9437L63.1195 27.3044V24.5831ZM60.4627 21.6034V22.3336L59.7746 21.9652L60.4627 21.6034ZM59.378 22.5949L60.6594 23.2807H60.6602C60.661 23.2814 60.661 23.2814 60.661 23.2814L61.9329 23.9541L59.378 25.3133V22.5949V22.5949ZM53.7619 17.2055L56.722 15.6338V18.7729L55.0457 19.6553C55.0449 19.6553 55.0449 19.656 55.0441 19.6567H55.0433L53.7619 20.3425V17.2055ZM51.8951 22.1734L53.5628 21.2911C53.5628 21.2911 53.5628 21.2911 53.5636 21.2904H53.5644L54.8458 20.6046V27.7244L51.8951 29.2947V22.1734ZM51.8951 30.1348L55.4383 28.2493C55.4525 28.2413 55.4604 28.2296 55.473 28.2209C55.496 28.2056 55.5181 28.1896 55.5363 28.17C55.5528 28.1532 55.5647 28.1336 55.5773 28.1139C55.5908 28.0942 55.6018 28.0746 55.6105 28.052C55.6192 28.028 55.6231 28.0047 55.6271 27.9785C55.6287 27.9632 55.6366 27.9501 55.6366 27.9341V20.1838L57.313 19.3015C57.3137 19.3007 57.3145 19.3 57.3153 19.2993H57.3161L58.588 18.615V21.963V25.9445C58.588 25.9525 58.592 25.959 58.5928 25.9656C58.5943 25.9896 58.6015 26.0114 58.6086 26.0355C58.6157 26.0602 58.6228 26.0842 58.6346 26.1068C58.6378 26.1134 58.6378 26.1206 58.6417 26.1265C58.6473 26.1352 58.6583 26.1388 58.6631 26.1461C58.6915 26.184 58.7255 26.2145 58.7666 26.24C58.78 26.2495 58.7911 26.2582 58.8061 26.2655C58.8598 26.2903 58.919 26.3085 58.9838 26.3085C59.0494 26.3085 59.1086 26.2903 59.1639 26.2633C59.1695 26.2604 59.1766 26.2619 59.1813 26.259L62.3302 24.5831V27.7244L51.8951 33.2907V30.1348ZM48.145 24.1638L51.1051 22.592V29.7148L48.145 31.2989V24.1638ZM48.145 32.1405L51.1051 30.5563V33.71L48.145 35.2818V32.1405ZM42.5289 23.1773L45.489 21.6056V24.7454L42.5289 26.3172V23.1773ZM35.046 19.1959L38.0061 17.6241V20.764L35.046 22.3358V19.1959ZM32.9786 24.2701C32.9794 24.2693 32.9802 24.2693 32.981 24.2686H32.9817L34.8469 23.2822C34.8477 23.2822 34.8477 23.2822 34.8485 23.2822L38.4011 21.3959L41.7389 23.1759V26.738L34.651 30.509L27.9566 26.9476L32.9786 24.2701ZM32.39 16.6202V19.7601L29.0349 21.5415L26.0771 19.9712L32.39 16.6202ZM21.947 18.1905L24.8898 16.6217V19.7616L21.947 21.3304V18.1905ZM18.1969 16.2009L21.157 14.6299V17.7705L18.1969 19.3415V16.2009ZM21.157 18.6106V21.3318L18.5935 19.9712L21.157 18.6106ZM10.0868 23.6665C10.0646 23.6818 10.0433 23.6978 10.0243 23.7168C10.0078 23.7342 9.9959 23.7532 9.98405 23.7721C9.97062 23.7925 9.95878 23.8129 9.95088 23.8354C9.94219 23.8587 9.93824 23.8828 9.93429 23.9082C9.93271 23.9235 9.92481 23.9374 9.92481 23.9534V25.314L5.0987 22.7558V19.6152L11.395 22.9655L10.1239 23.6382C10.1081 23.6447 10.0994 23.6578 10.0868 23.6665ZM13.6741 29.2947L11.1114 27.9341L13.6741 26.5734V29.2947ZM13.6741 25.7333L10.7148 27.3044V25.9437V24.1645L12.3825 23.2822C12.3825 23.2822 12.3825 23.2814 12.3833 23.2814L13.6734 22.5942V25.7333H13.6741ZM13.8724 21.6463C13.8716 21.6471 13.8716 21.6471 13.8709 21.6471L12.185 22.5454L5.49291 18.9848L8.45225 17.4138L15.1435 20.9737L13.8724 21.6463ZM17.4069 31.7211L14.4634 33.29V29.9244V26.1527L17.4069 24.5838V31.7211ZM17.6052 23.6374L17.6044 23.6382L14.4641 25.3126V22.1734L16.1303 21.2933C16.1303 21.2925 16.131 21.2925 16.131 21.2925L16.1318 21.2918C16.1318 21.2918 16.1326 21.2911 16.1326 21.2904C16.1334 21.2904 16.1334 21.2904 16.1342 21.2904L17.8019 20.3935L20.7597 21.963L17.6052 23.6374ZM26.7739 36.277L18.1977 31.7204V24.5824L24.4995 27.9348L23.2205 28.6228C23.2063 28.6308 23.1984 28.6424 23.1857 28.6512C23.1636 28.6664 23.1423 28.6825 23.1241 28.7014C23.1075 28.7189 23.0949 28.7385 23.0823 28.7582C23.0696 28.7778 23.0586 28.7982 23.0499 28.8201C23.0412 28.8441 23.0372 28.8674 23.0341 28.8929C23.0325 28.9081 23.0246 28.9212 23.0246 28.9373V32.926C23.0246 32.9333 23.0285 32.9398 23.0293 32.9471C23.0309 32.9711 23.038 32.9944 23.0451 33.0192C23.0522 33.0425 23.0586 33.0658 23.0696 33.0876C23.0736 33.0941 23.0728 33.1022 23.0775 33.108C23.083 33.1174 23.0941 33.1211 23.1004 33.1284C23.1281 33.1662 23.162 33.1968 23.2023 33.2215C23.2158 33.2303 23.2276 33.2397 23.2426 33.247C23.2963 33.2718 23.3548 33.29 23.4196 33.29H23.4204C23.4859 33.2892 23.5444 33.2718 23.5989 33.2448C23.6044 33.2419 23.6108 33.2434 23.6163 33.2405L26.7739 31.5581V36.277V36.277ZM26.7739 30.7187L23.8138 32.2955V29.1469L25.4791 28.2515C25.4791 28.2515 25.4791 28.2508 25.4799 28.2508L26.7739 27.573V30.7187V30.7187ZM26.9738 26.631L25.2864 27.5148L18.5927 23.9534L21.7495 22.2775L21.7503 22.2768L25.2848 20.3913L28.8374 22.2775L31.995 23.9541L26.9738 26.631ZM32.39 35.7011L31.2959 36.2791V33.1378L32.39 32.5598V35.7011ZM32.5891 31.6156L30.7042 32.6108C30.6892 32.6188 30.6805 32.6311 30.667 32.6406C30.6457 32.6559 30.6244 32.6704 30.6062 32.6894C30.5896 32.7068 30.577 32.7265 30.5643 32.7469C30.5517 32.7665 30.5399 32.7862 30.532 32.808C30.5225 32.8321 30.5185 32.8561 30.5154 32.8823C30.513 32.8976 30.5051 32.9107 30.5051 32.9267V36.9081C30.5051 36.9154 30.509 36.922 30.5098 36.9292C30.5114 36.9525 30.5185 36.9751 30.5256 36.9999C30.5327 37.0246 30.5391 37.0472 30.5509 37.0698C30.5541 37.0763 30.5541 37.0836 30.558 37.0894C30.5636 37.0989 30.5746 37.1025 30.5809 37.1098C30.6078 37.1469 30.641 37.1782 30.6821 37.203C30.6963 37.2124 30.7081 37.2219 30.7239 37.2292C30.7769 37.2539 30.8361 37.2721 30.9009 37.2721C30.9665 37.2721 31.0249 37.2547 31.0794 37.2277C31.0857 37.2248 31.0921 37.2263 31.0976 37.2234L32.39 36.5405V41.2543L27.5639 38.6888V36.9081V30.9291V27.5774L33.865 30.9298L32.5891 31.6156ZM39.8729 51.6348L36.9128 53.2066V50.0653L39.8729 48.487V51.6348ZM43.6136 53.6267L40.6629 55.197V52.0556L43.6136 50.4853V53.6267ZM43.6136 49.6452L40.6629 51.2155V47.8558C40.6629 47.8478 40.659 47.8412 40.6582 47.834C40.6566 47.8107 40.6495 47.7881 40.6424 47.7641C40.6353 47.7393 40.6282 47.716 40.6163 47.6935C40.6131 47.6869 40.6131 47.6796 40.6092 47.6738C40.6013 47.6607 40.5887 47.6541 40.5792 47.6418C40.5618 47.6207 40.5444 47.6003 40.5223 47.5828C40.5041 47.5675 40.4836 47.5573 40.4623 47.5457C40.4409 47.5333 40.4188 47.5231 40.3951 47.5151C40.3682 47.5064 40.3414 47.5027 40.3129 47.4998C40.2971 47.4976 40.2845 47.4911 40.2679 47.4911C40.26 47.4911 40.2529 47.4947 40.2458 47.4954C40.2181 47.4969 40.1921 47.5034 40.1644 47.5107C40.1391 47.5173 40.1154 47.5231 40.0917 47.5333C40.0846 47.5369 40.0767 47.5369 40.0704 47.5406L36.5186 49.4341L33.18 47.6461V43.8744V41.884V35.9122V32.5605L39.4771 35.9115L36.3203 37.5874C36.3045 37.5961 36.2958 37.6085 36.2816 37.6187C36.261 37.634 36.2405 37.6478 36.2239 37.6653C36.2065 37.6835 36.1931 37.7038 36.1797 37.725C36.1678 37.7439 36.1568 37.7628 36.1489 37.7846C36.1394 37.8087 36.1346 37.8334 36.1323 37.8604C36.1307 37.8749 36.1228 37.888 36.1228 37.9033V41.8847C36.1228 41.892 36.1267 41.8986 36.1275 41.9051C36.1291 41.9299 36.1362 41.9539 36.1441 41.9794C36.1512 42.002 36.1568 42.0245 36.1678 42.0456C36.1718 42.0522 36.171 42.0602 36.1757 42.0667C36.182 42.0762 36.1923 42.0798 36.1994 42.0886C36.2271 42.125 36.2595 42.1548 36.2997 42.1796C36.314 42.189 36.3258 42.1985 36.3416 42.2058C36.3945 42.2305 36.4538 42.2487 36.5186 42.2487C36.5834 42.2487 36.6418 42.2313 36.6971 42.2051C36.7034 42.2022 36.7105 42.2036 36.7161 42.2L39.8737 40.5234V43.8751C39.8737 43.8831 39.8777 43.8897 39.8784 43.8962C39.88 43.9202 39.8871 43.9421 39.8942 43.9661C39.9014 43.9908 39.9085 44.0149 39.9203 44.0374C39.9235 44.044 39.9235 44.0513 39.9274 44.0571C39.933 44.0658 39.9432 44.0695 39.9488 44.0768C39.9772 44.1146 40.0104 44.1452 40.0522 44.1707C40.0657 44.1801 40.0767 44.1889 40.0925 44.1961C40.1455 44.2209 40.2047 44.2391 40.2695 44.2391C40.3351 44.2391 40.3943 44.2209 40.4496 44.194C40.4551 44.191 40.4623 44.1925 40.467 44.1896L43.6151 42.5137V49.6452H43.6136ZM39.8729 36.542V39.6818L36.9128 41.2536V38.1137L39.8729 36.542ZM43.6136 41.6744L40.6629 43.2446V40.1033L43.6136 38.533V41.6744ZM40.6629 39.2639V36.5427L43.2194 37.9033L40.6629 39.2639ZM43.6136 37.2729L41.0571 35.9122L43.6136 34.5516V37.2729ZM43.6136 33.7122L40.6629 35.2825V32.1412L43.6136 30.5585V33.7122ZM44.383 29.8298C44.3759 29.8072 44.3696 29.7847 44.3593 29.7643C44.3554 29.757 44.3554 29.749 44.3506 29.7417C44.3419 29.7279 44.3277 29.7199 44.3175 29.7075C44.3009 29.6878 44.2843 29.6689 44.2637 29.6522C44.2456 29.6369 44.225 29.6267 44.2037 29.615C44.1816 29.6027 44.1595 29.5925 44.135 29.5845C44.1089 29.5757 44.0836 29.5728 44.056 29.5692C44.0394 29.5677 44.0259 29.5604 44.0086 29.5604C43.9999 29.5604 43.9928 29.5648 43.9849 29.5648C43.958 29.5663 43.9319 29.5735 43.9043 29.5801C43.8806 29.5866 43.8561 29.5925 43.834 29.6019C43.8261 29.6056 43.8174 29.6056 43.8095 29.6099L40.0688 31.6163C40.053 31.625 40.0451 31.6374 40.0309 31.6476C40.0104 31.6629 39.9898 31.6767 39.9732 31.6949C39.9559 31.7124 39.9432 31.7328 39.9298 31.7532C39.9179 31.7728 39.9069 31.7918 39.8982 31.8136C39.8887 31.8383 39.8848 31.8624 39.8816 31.8886C39.8792 31.9039 39.8721 31.9162 39.8721 31.9315V35.2832L33.5711 31.9308L34.8446 31.2472C34.8446 31.2472 34.8446 31.2465 34.8454 31.2465L34.8493 31.2443C34.8493 31.2443 34.8493 31.2443 34.8501 31.2443L42.3282 27.265C42.329 27.2643 42.3298 27.265 42.3306 27.2643L46.0807 25.274C46.0815 25.2732 46.0823 25.2725 46.0831 25.2725L47.3542 24.5882V31.7233L44.4028 33.2936V29.9266C44.4028 29.9186 44.3988 29.9128 44.398 29.9055C44.3972 29.8778 44.3901 29.8545 44.383 29.8298ZM47.355 32.5612V35.7026L44.4036 37.2729V34.1315L47.355 32.5612ZM54.8466 55.617L51.8959 57.1873V54.046L54.8466 52.4757V55.617ZM54.8466 51.6363L51.5017 53.4163L48.1458 51.6348V40.5234L51.3034 42.2C51.3042 42.2007 51.305 42.2 51.3058 42.2007C51.3066 42.2007 51.3066 42.2007 51.3074 42.2014L54.4524 43.8751L51.3034 45.551C51.2892 45.559 51.2813 45.5706 51.2687 45.5793C51.2458 45.5946 51.2236 45.6106 51.2055 45.6303C51.1889 45.647 51.177 45.6667 51.1644 45.6864C51.151 45.706 51.1399 45.7257 51.1312 45.7482C51.1225 45.7723 51.1186 45.7956 51.1154 45.8218C51.113 45.8371 51.1051 45.8502 51.1051 45.8662V49.8556C51.1051 49.8636 51.1091 49.8702 51.1099 49.8775C51.1115 49.9015 51.1186 49.924 51.1257 49.9488C51.1328 49.9721 51.1399 49.9954 51.151 50.0172C51.1549 50.0245 51.1541 50.0325 51.1589 50.0383C51.1652 50.0478 51.1754 50.0514 51.1818 50.0595C51.2094 50.0959 51.2426 50.1264 51.2829 50.1512C51.2971 50.1599 51.309 50.1694 51.324 50.1767C51.3777 50.2014 51.4369 50.2196 51.5009 50.2196C51.5665 50.2196 51.6257 50.2014 51.6803 50.1752C51.6866 50.1723 51.6937 50.1738 51.6992 50.1701L54.8466 48.4877V51.6363V51.6363ZM48.5424 39.8937L51.1051 38.533V41.2543L48.5424 39.8937ZM54.8466 47.6461L51.8959 49.223V46.0751L54.8466 44.5048V47.6461ZM54.8466 43.2446L52.2901 41.884L54.8466 40.5234V43.2446ZM54.8466 39.684L51.8959 41.2543V38.113L54.8466 36.5427V39.684ZM55.0441 35.597L51.3066 37.5859C51.3058 37.5859 51.3042 37.5859 51.3034 37.5866L47.5533 39.577C47.5454 39.5814 47.5414 39.5879 47.5351 39.5923C47.5201 39.601 47.5075 39.6105 47.494 39.6214C47.4798 39.633 47.4688 39.6432 47.4569 39.6556C47.4443 39.6687 47.434 39.6804 47.4245 39.6942C47.4198 39.7007 47.4127 39.7051 47.4079 39.7109C47.4032 39.7182 47.404 39.7262 47.4 39.732C47.3921 39.7466 47.3866 39.7597 47.3819 39.775C47.3755 39.791 47.37 39.807 47.3669 39.8238C47.3629 39.8398 47.3605 39.8558 47.3597 39.8718C47.359 39.8791 47.355 39.8857 47.355 39.8922V51.6348L44.4036 53.2051V49.8534V41.884V38.1122L47.9451 36.2282C47.9459 36.2275 47.9467 36.2282 47.9475 36.2275L51.6976 34.2371C51.6984 34.2371 51.6984 34.2364 51.6984 34.2364L62.9212 28.2493H62.922L66.0788 26.5727V29.714L62.5262 31.6148C62.5254 31.6148 62.5254 31.6156 62.5246 31.6163L55.0441 35.597ZM66.0796 30.5578V33.9219V37.6929L63.1202 39.2639V32.1412L66.0796 30.5578ZM59.3733 37.8815C59.3717 37.8574 59.3646 37.8356 59.3575 37.8116C59.3504 37.7868 59.3433 37.7628 59.3314 37.7402C59.3282 37.7337 59.3282 37.7264 59.3243 37.7206C59.3156 37.7075 59.303 37.6995 59.2927 37.6878C59.2761 37.6674 59.2603 37.6478 59.239 37.631C59.22 37.6158 59.1979 37.6034 59.1758 37.591C59.1552 37.5801 59.1347 37.5699 59.1118 37.5626C59.0849 37.5531 59.0573 37.5495 59.0288 37.5473C59.013 37.5451 58.9996 37.5386 58.983 37.5386C58.9751 37.5386 58.968 37.5422 58.9609 37.543C58.9348 37.5444 58.9096 37.551 58.8827 37.5575C58.8558 37.5641 58.8313 37.5706 58.8069 37.5815C58.7997 37.5844 58.7918 37.5844 58.7855 37.5881L55.6366 39.2639V36.1226L62.3302 32.5612V39.684L59.3788 41.2543V37.9026C59.378 37.8953 59.3741 37.8888 59.3733 37.8815ZM58.588 38.533V41.6744L55.6366 43.2446V40.1033L58.588 38.533ZM56.9195 46.5461C56.9124 46.5498 56.9085 46.5563 56.9022 46.5607C56.8879 46.5694 56.8761 46.5782 56.8627 46.5884C56.8476 46.6007 56.835 46.6116 56.8216 46.6262C56.8097 46.6386 56.8002 46.6502 56.79 46.6641C56.786 46.6699 56.7789 46.6735 56.775 46.6794C56.771 46.6852 56.771 46.6932 56.7679 46.699C56.7592 46.7136 56.7528 46.7281 56.7473 46.7441C56.741 46.7602 56.7363 46.7762 56.7331 46.7929C56.7299 46.8082 56.7268 46.8235 56.726 46.8388C56.7252 46.8468 56.7213 46.8533 56.7213 46.8606V54.6204L55.6358 55.197V51.8452V47.8558V44.084L59.1797 42.1985L62.9188 40.2096C62.9196 40.2089 62.9204 40.2096 62.9212 40.2089L66.6705 38.2185C66.6713 38.2178 66.6721 38.2171 66.6729 38.2164L69.8194 36.542V39.8937V41.2543L68.5373 40.5729C68.5223 40.5649 68.5065 40.5642 68.4907 40.5583C68.4646 40.5481 68.4401 40.5394 68.4117 40.5343C68.388 40.5307 68.3643 40.5299 68.3406 40.5299C68.3145 40.5299 68.29 40.5299 68.2639 40.535C68.2355 40.5401 68.211 40.5503 68.1841 40.5598C68.1699 40.5656 68.1549 40.5663 68.1407 40.5736L56.9195 46.5461ZM64.2041 58.1832L57.512 54.6218V47.4911L64.2049 51.0597V58.1832H64.2041ZM64.5991 50.43L57.9047 46.8606L68.3398 41.3089L70.0177 42.2L71.8924 43.1951C71.8932 43.1959 71.894 43.1951 71.8948 43.1959H71.8956V43.1966L75.0421 44.8703L64.5991 50.43ZM75.4371 52.6315L64.9941 58.1832V51.0605L75.4371 45.5007V52.6315Z" fill="white"/>
</svg>
