<svg width="100" height="119" viewBox="0 0 100 119" fill="none" xmlns="http://www.w3.org/2000/svg">
<path d="M89.575 68.7373H84.834V64.2286C84.834 63.7031 84.387 63.2766 83.834 63.2766H79.088V58.7584C79.088 58.2329 78.641 57.8064 78.088 57.8064H73.349V53.2892C73.349 52.7637 72.901 52.3372 72.349 52.3372H67.603V47.819C67.603 47.2935 67.155 46.8671 66.603 46.8671H61.862V42.3545C61.862 41.829 61.415 41.4025 60.862 41.4025H56.116V36.8891C56.116 36.3636 55.669 35.9371 55.116 35.9371H50.377V32.3709H55.116C55.669 32.3709 56.116 31.9444 56.116 31.4189V20.4852C56.116 19.9597 55.669 19.5332 55.116 19.5332H50.377V15.0197C50.377 14.4942 49.929 14.0677 49.377 14.0677H37.889C37.337 14.0677 36.889 14.4942 36.889 15.0197V19.5332H32.143H26.403C25.851 19.5332 25.403 19.9597 25.403 20.4852V25.0034H14.917C14.365 25.0034 13.917 25.4299 13.917 25.9554V30.4679H9.17102C8.61902 30.4679 8.17102 30.8944 8.17102 31.4199V42.3545C8.17102 42.88 8.61902 43.3065 9.17102 43.3065H13.917V47.819C13.917 48.3445 14.365 48.771 14.917 48.771H19.658V53.2892C19.658 53.8147 20.106 54.2412 20.658 54.2412H25.404V58.7584C25.404 59.2849 25.852 59.7104 26.404 59.7104H37.89C38.442 59.7104 38.89 59.2849 38.89 58.7584V54.2412H43.631C44.183 54.2412 44.631 53.8147 44.631 53.2892V48.771H48.377V53.2892C48.377 53.8147 48.825 54.2412 49.377 54.2412H54.116V58.7584C54.116 59.2849 54.564 59.7104 55.116 59.7104H59.862V64.2286C59.862 64.7551 60.31 65.1807 60.862 65.1807H65.603V69.6894C65.603 70.2159 66.051 70.6413 66.603 70.6413H71.349V75.1595C71.349 75.685 71.797 76.1116 72.349 76.1116H77.088V80.6297C77.088 81.1552 77.536 81.5817 78.088 81.5817H83.834H89.575C90.127 81.5817 90.575 81.1552 90.575 80.6297V75.1595V69.6894C90.575 69.1629 90.127 68.7373 89.575 68.7373ZM84.084 74.9216V69.9273H89.325V74.9216H84.084ZM26.653 53.0513V47.819C26.653 47.6876 26.541 47.5811 26.403 47.5811H20.907V42.3545C20.907 42.2232 20.795 42.1166 20.657 42.1166H15.166V31.6569H26.402H32.142C32.28 31.6569 32.392 31.5503 32.392 31.4189V26.1924H37.888C38.026 26.1924 38.138 26.0858 38.138 25.9544V20.7222H49.125V31.1799H43.63C43.492 31.1799 43.38 31.2866 43.38 31.4179V36.6502H37.889C37.751 36.6502 37.639 36.7568 37.639 36.8881V42.3536V53.0503H26.653V53.0513ZM31.894 26.1924V31.181H26.654V26.1924H31.894ZM43.88 37.1272H49.126V42.1166H43.88V37.1272ZM43.88 36.6511V31.6569H49.126V36.6511H43.88ZM38.139 37.1272H43.38V42.1166H38.139V37.1272ZM43.88 42.5925H49.126V47.5811H43.88V42.5925ZM49.626 42.5925H54.865V47.5811H49.626V42.5925ZM55.365 48.0561H60.611V53.0503H55.365V48.0561ZM61.111 53.5272H66.352V58.5205H61.111V53.5272ZM66.853 58.9964H72.099V63.9907H66.853V58.9964ZM72.599 64.4666H77.838V69.4514H72.599V64.4666ZM78.338 69.9273H83.584V74.9216H78.338V69.9273ZM78.338 69.4514V64.4666H83.584V69.4514H78.338ZM72.599 63.9907V58.9964H77.838V63.9907H72.599ZM66.853 58.5205V53.5272H72.099V58.5205H66.853ZM61.111 53.0513V48.057H66.352V53.0513H61.111ZM55.365 47.5802V42.5916H60.611V47.5802H55.365ZM49.626 42.1166V37.1272H54.865V42.1166H49.626ZM49.626 20.7232H54.865V31.181H49.626V20.7232ZM38.139 20.2472V15.2577H49.126V20.2472H38.139ZM37.639 25.7164H32.393V20.7222H37.639V25.7164ZM31.894 25.7164H26.654V20.7222H31.894V25.7164ZM26.153 31.181H15.167V26.1924H26.153V31.181ZM14.667 42.1166H9.42102V31.6569H14.667V42.1166ZM20.408 42.5925V47.5811H15.167V42.5925H20.408ZM26.153 48.0561V53.0503H20.907V48.0561H26.153ZM37.639 53.5272V58.5205H26.653V53.5272H37.639ZM38.139 42.5925H43.38V47.819V53.0513H38.139V42.5925ZM54.865 48.0561V53.0503H49.626V48.0561H54.865ZM60.611 53.5272V58.5205H55.365V53.5272H60.611ZM66.353 58.9964V63.9907H61.112V58.9964H66.353ZM72.099 64.4666V69.4514H66.853V64.4666H72.099ZM77.838 69.9273V74.9216H72.599V69.9273H77.838ZM83.584 75.3975V80.3917H78.338V75.3975H83.584ZM84.084 75.3975H89.325V80.3917H84.084V75.3975Z" fill="white"/>
</svg>
