<svg width="88" height="113" viewBox="0 0 88 113" fill="none" xmlns="http://www.w3.org/2000/svg">
<path d="M77.4832 78.9888V73.7998V68.6054C77.4832 68.1064 77.0898 67.7014 76.6032 67.7014H72.4276V63.4165C72.4276 62.9166 72.0333 62.5125 71.5476 62.5125H67.3816V58.2221C67.3816 57.7231 66.9874 57.3181 66.5016 57.3181H62.3243V53.0331C62.3243 52.5341 61.9309 52.1291 61.4443 52.1291H57.2678V47.8396C57.2678 47.3406 56.8744 46.9356 56.3878 46.9356H52.2122V42.6498C52.2122 42.1508 51.818 41.7458 51.3322 41.7458H47.1654V37.4554C47.1654 36.9564 46.772 36.5514 46.2854 36.5514H42.108V32.2664C42.108 31.7674 41.7138 31.3624 41.228 31.3624H37.0516V27.9761H56.3869C56.8735 27.9761 57.2669 27.5711 57.2669 27.0721V22.7862H61.4434C61.93 22.7862 62.3234 22.3812 62.3234 21.8822V16.6878C62.3234 16.1888 61.93 15.7838 61.4434 15.7838H57.2669V11.4988C57.2669 10.9998 56.8735 10.5948 56.3869 10.5948H31.116C30.6302 10.5948 30.236 10.9998 30.236 11.4988V15.7838H26.0692H21.0127H15.9562C15.4704 15.7838 15.0762 16.1888 15.0762 16.6878V21.8822V27.0721V31.3624H10.8997C10.414 31.3624 10.0197 31.7674 10.0197 32.2664V58.2221C10.0197 58.722 10.414 59.1261 10.8997 59.1261H15.0762V63.4165C15.0762 63.9164 15.4704 64.3205 15.9562 64.3205H21.0127C21.4984 64.3205 21.8927 63.9164 21.8927 63.4165V59.1261H26.0692C26.5549 59.1261 26.9492 58.722 26.9492 58.2221V38.3585H30.236V42.6489C30.236 43.1479 30.6302 43.5529 31.116 43.5529H35.2924V47.8387C35.2924 48.3377 35.6867 48.7427 36.1724 48.7427H40.3489V53.0322C40.3489 53.5321 40.7432 53.9362 41.2289 53.9362H45.4054V58.2212C45.4054 58.7211 45.7996 59.1252 46.2854 59.1252H50.4522V63.4156C50.4522 63.9155 50.8464 64.3196 51.3322 64.3196H55.5078V68.6045C55.5078 69.1044 55.902 69.5085 56.3878 69.5085H60.5643V73.7989C60.5643 74.2988 60.9585 74.7029 61.4443 74.7029H65.6216V78.9879C65.6216 79.4878 66.0159 79.8919 66.5016 79.8919H71.5476H76.6032C77.0898 79.8928 77.4832 79.4887 77.4832 78.9888ZM20.7927 22.1082V26.8461H16.1762V22.1082H20.7927ZM31.336 32.0395V27.2971H35.9524V32.0395H31.336ZM26.2892 27.2971H30.896V32.0395H26.2892V27.2971V27.2971ZM25.8492 26.8451H21.2327V22.1073H25.8492V26.8451V26.8451ZM26.2892 32.4915H30.896V37.2285H26.2892V32.4915V32.4915ZM31.336 32.4915H35.9524V37.2285H31.336V32.4915ZM36.3916 37.6805H41.008V42.4229H36.3916V37.6805ZM41.448 42.8749H46.0645V47.6127H41.448V42.8749ZM46.5045 48.0647H51.1113V52.8062H46.5045V48.0647ZM51.5513 53.2582H56.1669V57.9952H51.5513V53.2582ZM56.6069 58.4472H61.2234V63.1896H56.6069V58.4472ZM61.6634 63.6416H66.2808V68.3785H61.6634V63.6416ZM66.7208 68.8314H71.3267V73.5738H66.7208V68.8314ZM71.7676 74.0258H76.3832V78.7628H71.7676V74.0258ZM76.3832 73.5738H71.7676V68.8314H76.3832V73.5738ZM66.7208 68.3794V63.6416H71.3267V68.3785H66.7208V68.3794ZM61.6634 63.1896V58.4472H66.2808V63.1896H61.6634ZM56.6069 57.9952V53.2582H61.2234V57.9952H56.6069ZM51.5513 52.8062V48.0647H56.1669V52.8062H51.5513ZM46.5045 47.6127V42.8749H51.1113V47.6127H46.5045ZM41.448 42.4229V37.6805H46.0645V42.4229H41.448ZM36.3916 37.2285V32.4915H41.008V37.2285H36.3916ZM36.1716 26.8451H31.3351V22.1073H56.166V26.8451H36.1716ZM56.6069 16.9138H61.2234V21.6562H56.6069V16.9138ZM31.336 16.4618V11.7248H56.1669V16.4618H31.336ZM30.896 21.6562H26.2892V16.9138H30.896V21.6562ZM25.8492 21.6562H21.2327V16.9138H25.8492V21.6562V21.6562ZM20.7927 21.6562H16.1762V16.9138H20.7927V21.6562ZM16.1762 27.2971H20.7927V32.0395H16.1762V27.2971V27.2971ZM15.7362 57.9952H11.1197V32.4915H15.7362V57.9952ZM20.7927 58.4472V63.1896H16.1762V58.4472H20.7927V58.4472ZM21.2327 32.4915H25.8492V37.4545V57.9952H21.2327V32.4915ZM35.9516 37.6805V42.4229H31.3351V37.6805H35.9516ZM41.008 42.8749V47.6127H36.3916V42.8749H41.008ZM46.0645 48.0647V52.8062H41.448V48.0647H46.0645ZM51.1113 53.2582V57.9952H46.5045V53.2582H51.1113V53.2582ZM56.1669 58.4472V63.1896H51.5513V58.4472H56.1669V58.4472ZM61.2234 63.6416V68.3785H56.6069V63.6416H61.2234ZM66.2808 68.8314V73.5738H61.6634V68.8314H66.2808ZM71.3276 74.0258V78.7628H66.7216V74.0258H71.3276Z" fill="white"/>
</svg>
